<svg width="560" height="560" viewBox="0 0 560 560" fill="none" xmlns="http://www.w3.org/2000/svg">
<path d="M459.48 290.08C359.094 232.367 196.336 232.367 95.9502 290.08C-4.4353 347.794 -4.42411 441.381 95.9502 499.095C196.325 556.808 359.083 556.82 459.468 499.095C559.854 441.37 559.854 347.76 459.48 290.08Z" fill="#F1F5F9"/>
<path d="M393.78 422.945C419.123 422.945 439.667 411.086 439.667 396.457C439.667 381.829 419.123 369.969 393.78 369.969C368.438 369.969 347.894 381.829 347.894 396.457C347.894 411.086 368.438 422.945 393.78 422.945Z" fill="#E2E8F0"/>
<path d="M339.035 442.837C320.712 441.146 305.122 442.31 292.735 444.875C291.099 433.182 281.535 421.736 263.973 412.798C225.288 393.075 162.557 393.075 123.872 412.798C85.1872 432.522 85.1872 464.498 123.872 484.221C162.557 503.944 225.288 503.933 263.973 484.221C268.027 482.173 271.908 479.798 275.576 477.12C288.249 479.995 301.224 481.323 314.216 481.074L315.549 481.51C326.076 484.898 337.05 486.692 348.107 486.83C356.653 486.83 363.788 485.475 367.82 482.731C368.242 482.447 368.646 482.136 369.029 481.802C374.316 481.958 380.061 482.171 386.109 480.962C394.879 479.192 399.18 475.362 398.933 470.747C398.317 459.2 364.672 445.189 339.035 442.837ZM314.72 477.355C307.194 474.589 303.184 470.814 303.632 466.85C304.226 461.63 311.931 456.926 321.183 456.154C322.459 456.053 323.77 455.997 325.069 455.997C332.203 455.997 339.517 457.52 344.109 459.749C342.045 459.777 339.998 460.12 338.039 460.768C335.272 461.72 333.995 463.938 334.679 466.558C335.216 468.53 336.919 470.691 339.517 472.763C333.1 475.619 324.341 477.053 314.72 477.355ZM344.826 463.389C346.181 463.391 347.533 463.504 348.869 463.725C348.913 463.822 348.946 463.923 348.97 464.027C349.519 465.976 347.469 468.418 343.28 470.87C340.402 468.944 338.677 467.006 338.296 465.595C338.173 465.158 338.039 464.654 339.282 464.229C341.064 463.647 342.929 463.364 344.803 463.389H344.826ZM324.8 480.267C330.938 479.627 336.931 477.989 342.541 475.418L343.112 475.126C349.128 478.431 355.734 480.524 362.556 481.286C354.447 484.176 339.517 483.75 324.8 480.267ZM367.484 478.027C360.338 477.721 353.328 475.973 346.875 472.886C350.863 470.21 352.823 467.41 352.733 464.531C356.646 465.594 360.329 467.371 363.597 469.773C366.565 472.013 368.178 474.454 368.077 476.392C368.027 476.997 367.815 477.578 367.461 478.072L367.484 478.027ZM385.404 477.322C380.431 478.33 375.749 478.117 371.426 478.139C371.567 477.653 371.657 477.154 371.695 476.65C371.919 473.424 369.836 469.93 365.826 466.872C361.448 463.665 356.427 461.445 351.109 460.365C346.192 454.25 331.207 451.606 320.869 452.458C309.759 453.398 300.776 459.379 299.981 466.39C299.679 469.045 300.384 473.357 306.354 477.299C297.269 476.98 288.226 475.912 279.317 474.107C288.434 466.267 292.992 457.307 293.003 448.482C305.088 445.928 320.466 444.752 338.711 446.432C365.535 448.896 394.868 462.896 395.293 470.893C395.36 473.323 391.81 476.078 385.381 477.366L385.404 477.322Z" fill="#E2E8F0"/>
<path d="M153.631 66.3266L140.795 73.7298C140.866 73.1687 140.903 72.604 140.907 72.0386V68.3202C140.907 61.701 136.259 59.0242 130.525 62.3282C128.047 63.8522 125.93 65.8967 124.32 68.3202C123.391 59.9986 116.861 56.8962 108.931 61.477C100.363 66.4274 93.4082 78.4562 93.4082 88.357V93.957C93.3547 96.1761 93.8067 98.3783 94.7298 100.397L84.0674 106.546C82.3925 107.639 80.9985 109.11 79.9984 110.842C78.9982 112.574 78.42 114.517 78.3105 116.514C78.3105 120.187 80.8866 121.677 84.0674 119.874L153.608 79.7218C155.283 78.6283 156.676 77.1563 157.676 75.4247C158.676 73.693 159.255 71.7504 159.365 69.7538C159.387 65.9794 156.8 64.4898 153.631 66.3266Z" fill="#EBEBEB"/>
<path d="M205.767 88.48L197.579 93.2064C197.625 92.8348 197.648 92.4607 197.647 92.0864V89.7456C197.647 85.5344 194.69 83.8208 191.039 85.9376C189.466 86.8998 188.121 88.1913 187.096 89.7232C186.491 84.4144 182.336 82.4432 177.285 85.3664C171.819 88.5136 167.384 96.1856 167.384 102.502V106.053C167.348 107.465 167.635 108.868 168.224 110.152L161.426 114.083C160.357 114.778 159.467 115.715 158.829 116.819C158.19 117.922 157.821 119.161 157.752 120.434C157.752 122.774 159.399 123.726 161.426 122.55L205.767 96.9584C206.836 96.2613 207.726 95.3221 208.364 94.2168C209.002 93.1114 209.371 91.8712 209.44 90.5968C209.44 88.256 207.794 87.36 205.767 88.48Z" fill="#EBEBEB"/>
<path d="M346.875 481.331C335.817 481.189 324.843 479.392 314.317 476L312.984 475.563C294.56 476.09 273.358 472.573 257.88 466.805L259.157 463.378C271.891 468.115 289.117 471.318 305.077 471.834C299.096 467.891 298.357 463.579 298.704 460.936C299.499 453.914 308.47 447.933 319.592 446.992C329.918 446.141 344.904 448.784 349.832 454.91C355.151 455.982 360.173 458.199 364.549 461.406C368.558 464.486 370.642 467.958 370.418 471.184C370.38 471.689 370.29 472.188 370.149 472.674C374.472 472.674 379.109 472.864 384.126 471.856C390.555 470.568 394.15 467.813 394.027 465.427C393.601 457.43 364.269 443.43 337.445 440.966C301.717 437.674 276.965 445.323 266.538 452.872L264.387 449.915C275.274 441.997 301.045 433.944 337.781 437.326C363.406 439.678 397.062 453.634 397.678 465.237C397.925 469.818 393.613 473.682 384.854 475.451C378.795 476.661 373.049 476.448 367.763 476.291C367.386 476.629 366.985 476.939 366.565 477.221C362.544 479.976 355.41 481.331 346.875 481.331ZM323.546 474.779C338.285 478.262 353.214 478.677 361.301 475.787C354.479 475.026 347.873 472.933 341.858 469.627L341.286 469.918C335.675 472.489 329.683 474.131 323.546 474.779ZM345.621 467.443C352.075 470.523 359.084 472.268 366.229 472.573C366.548 472.083 366.741 471.521 366.789 470.938C366.923 469.011 365.299 466.592 362.309 464.318C359.038 461.922 355.356 460.145 351.445 459.077C351.568 461.955 349.608 464.8 345.621 467.443ZM323.814 450.498C322.504 450.498 321.205 450.498 319.928 450.654C310.677 451.427 302.96 456.131 302.378 461.35C301.93 465.315 305.939 469.09 313.454 471.856C323.098 471.554 331.856 470.12 338.33 467.264C335.709 465.192 334.04 463.03 333.502 461.059C332.797 458.438 334.074 456.221 336.862 455.269C338.822 454.62 340.869 454.277 342.933 454.25C338.24 452.021 330.949 450.498 323.814 450.498ZM343.571 457.89C341.689 457.86 339.816 458.144 338.027 458.73C336.784 459.155 336.907 459.659 337.042 460.096C337.422 461.507 339.136 463.456 342.026 465.371C346.214 462.918 348.264 460.477 347.715 458.528C347.692 458.424 347.658 458.323 347.614 458.226C346.277 458.01 344.926 457.898 343.571 457.89Z" fill="#455A64"/>
<path d="M357.415 476.818C359.922 477.393 362.456 477.842 365.008 478.162C365.554 477.886 366.081 477.575 366.587 477.232C367.008 476.951 367.408 476.64 367.786 476.303C367.786 476.303 364.202 476.123 361.301 475.787C360.032 476.225 358.733 476.57 357.415 476.818Z" fill="#37474F"/>
<path d="M339.159 470.882C339.887 470.579 340.603 470.255 341.287 469.919L341.858 469.627C340.613 468.948 339.432 468.157 338.33 467.264C337.467 467.645 336.549 467.992 335.608 468.328C336.657 469.352 337.854 470.213 339.159 470.882Z" fill="#37474F"/>
<path d="M347.715 458.528C347.883 459.21 347.787 459.93 347.447 460.544C348.682 460.701 349.893 461.009 351.053 461.462C351.353 460.704 351.498 459.892 351.479 459.077C350.225 458.655 348.929 458.37 347.615 458.226C347.658 458.323 347.692 458.424 347.715 458.528Z" fill="#37474F"/>
<path d="M300.675 471.621C302.367 473.174 304.249 474.506 306.275 475.586C308.515 475.631 310.755 475.631 312.995 475.586C310.288 474.55 307.667 473.303 305.155 471.856C303.643 471.789 302.165 471.722 300.675 471.621Z" fill="#37474F"/>
<path d="M264.409 449.926L266.56 452.883C270.659 449.904 277.009 446.914 285.387 444.584C285.796 443.276 286.111 441.939 286.328 440.586C276.494 443.117 269.08 446.533 264.409 449.926Z" fill="#37474F"/>
<path d="M270.2 466.827C266.28 465.797 262.55 464.655 259.157 463.389L257.88 466.816C260.635 467.847 263.581 468.787 266.649 469.661C267.87 468.776 269.057 467.824 270.2 466.827Z" fill="#37474F"/>
<path d="M199.36 311.774H199.281C185.371 311.248 172.2 300.91 159.466 290.92C148.579 282.374 138.286 274.299 129.494 274.299C129.01 274.299 128.546 274.107 128.203 273.764C127.861 273.422 127.669 272.958 127.669 272.474C127.669 271.989 127.861 271.525 128.203 271.183C128.546 270.84 129.01 270.648 129.494 270.648C139.574 270.648 150.326 279.093 161.728 288.042C174.048 297.674 186.693 307.63 199.427 308.112C199.888 308.156 200.316 308.372 200.624 308.717C200.933 309.062 201.099 309.511 201.091 309.974C201.082 310.437 200.899 310.88 200.578 311.214C200.257 311.547 199.822 311.748 199.36 311.774Z" fill="#455A64"/>
<path d="M108.942 392.056C99.0416 388.382 90.5744 374.842 94.2592 359.766C98.7393 341.6 118.642 328.731 129.584 318.192C149.923 298.603 162.378 282.946 155.893 254.766C150.215 230.127 127.378 221.883 113.803 222.387C97.0032 223.026 86.3856 230.037 87.3152 235.491C87.7296 237.91 92.3104 238.986 95.928 240.319C107.128 244.418 110.622 246.926 114.206 251.754C119.661 259.101 120.579 268.699 119.403 269.36C118.227 270.021 116.67 264.499 109.222 261.318C101.774 258.138 98.1344 260.434 98.2017 262.091C98.2689 263.749 105.123 265.317 107.162 275.173C108.886 283.371 108.472 293.933 96.1408 310.811C88.5472 321.205 71.288 340.659 75.0512 365.49C78.8144 390.32 97.72 399.392 105.504 399.84L108.942 392.056Z" fill="#5EEAD4"/>
<path opacity="0.05" d="M108.942 392.056C99.0416 388.382 90.5744 374.842 94.2592 359.766C98.7393 341.6 118.642 328.731 129.584 318.192C149.923 298.603 162.378 282.946 155.893 254.766C150.215 230.127 127.378 221.883 113.803 222.387C97.0032 223.026 86.3856 230.037 87.3152 235.491C87.7296 237.91 92.3104 238.986 95.928 240.319C107.128 244.418 110.622 246.926 114.206 251.754C119.661 259.101 120.579 268.699 119.403 269.36C118.227 270.021 116.67 264.499 109.222 261.318C101.774 258.138 98.1344 260.434 98.2017 262.091C98.2689 263.749 105.123 265.317 107.162 275.173C108.886 283.371 108.472 293.933 96.1408 310.811C88.5472 321.205 71.288 340.659 75.0512 365.49C78.8144 390.32 97.72 399.392 105.504 399.84L108.942 392.056Z" fill="black"/>
<path opacity="0.15" d="M105.504 399.84L108.942 392.067C106.08 390.956 103.496 389.232 101.371 387.016C99.8445 390.457 98.6845 394.05 97.9104 397.735C100.299 398.876 102.869 399.589 105.504 399.84Z" fill="black"/>
<path d="M137.76 251.328C139.272 250.331 138.734 247.968 137.984 246.378C136.053 242.104 133.315 238.244 129.92 235.01C132.391 235.53 134.823 236.219 137.2 237.071C140.65 238.191 142.878 239.658 143.394 238.381C143.572 237.409 143.526 236.409 143.259 235.458C142.654 233.083 142.072 232.221 141.254 231.583C133.383 225.515 123.697 222.276 113.758 222.387C96.9584 223.026 86.3407 230.037 87.2703 235.491C87.6848 237.911 92.2656 238.986 95.8832 240.319C107.083 244.418 110.578 246.927 114.162 251.754C114.162 251.821 118.216 253.759 120.042 254.923C120.835 255.499 121.752 255.882 122.718 256.043C123.162 256.09 123.609 255.983 123.984 255.741C125.238 254.912 124.97 253.031 124.51 251.608C123.601 248.819 122.477 246.104 121.15 243.488C125.506 244.488 129.533 246.59 132.843 249.592C134.243 250.88 136.158 252.336 137.76 251.328Z" fill="#455A64"/>
<path d="M192.271 385.526C193.693 404.992 200.111 417.11 213.349 428.355C226.587 439.6 245.482 446.275 253.826 449.949C262.17 453.622 268.386 458.013 274.389 452.906C280.392 447.798 279.899 436.744 290.595 427.963C301.291 419.182 305.043 416.763 305.323 410.357C305.682 401.946 297.584 402.158 295.109 403.424C295.109 403.424 293.014 399.84 287.045 401.184C283.972 401.932 281.315 403.854 279.642 406.538C279.642 406.538 275.923 406.314 271.992 409.987C268.509 413.235 261.733 421.96 261.733 421.96C261.733 421.96 268.968 410.592 265.81 398.44C262.954 387.442 255.92 384.44 255.92 384.44C255.92 384.44 258.944 382.894 267.03 384.339C267.03 384.339 263.67 374.954 248.909 371.314C234.147 367.674 224.392 378.235 224.392 378.235L192.271 385.526Z" fill="#5EEAD4"/>
<path opacity="0.15" d="M282.24 403.525C281.202 404.371 280.309 405.381 279.597 406.515C281.837 406.515 286.529 406.75 288.176 412.462C288.221 412.462 290.08 406.022 282.24 403.525Z" fill="black"/>
<path opacity="0.15" d="M296.509 410.122C296.509 410.122 299.544 408.408 297.786 402.786C296.861 402.829 295.953 403.045 295.109 403.424C295.855 404.35 296.371 405.44 296.614 406.605C296.857 407.769 296.821 408.974 296.509 410.122Z" fill="black"/>
<path d="M287.011 420.974C283.262 421.871 279.787 423.664 276.884 426.201C273.981 428.737 271.738 431.94 270.346 435.534C266.986 443.52 268.184 448.862 271.466 449.68C274.747 450.498 276.282 450.038 279.115 445.726C281.467 440.362 283.685 433.709 290.64 427.997L296.061 423.573C295.68 421.221 292.611 419.597 287.011 420.974Z" fill="#F28F8F"/>
<path d="M285.309 413.358C283.069 412.474 280.829 417.659 283.36 418.645C285.454 419.462 288.232 414.546 285.309 413.358Z" fill="#FFA8A7"/>
<path d="M293.888 411.6C291.704 410.715 289.408 415.901 291.939 416.886C294.034 417.76 296.8 412.787 293.888 411.6Z" fill="#F28F8F"/>
<path d="M300.933 411.421C298.749 410.525 296.453 415.71 298.984 416.696C301.09 417.513 303.867 412.608 300.933 411.421Z" fill="#F28F8F"/>
<path d="M169.198 335.53C168.078 341.746 144.682 347.659 128.621 359.766C112.56 371.874 98.3808 388.382 100.901 416.998C103.667 448.358 131.936 459.928 146.821 459.928C161.706 459.928 212.531 455.986 238.549 418.97C264.566 381.954 229.521 333.211 169.198 335.53Z" fill="#5EEAD4"/>
<path opacity="0.15" d="M132.597 408.027C132.597 408.027 140.695 393.747 162.927 397.69C185.159 401.632 183.165 436.072 183.165 436.072C183.165 436.072 183.411 455.325 169.199 453.309C154.986 451.293 132.597 408.027 132.597 408.027Z" fill="black"/>
<path opacity="0.15" d="M169.198 335.529C169.029 336.251 168.674 336.915 168.168 337.456C167.216 348.925 170.755 363.709 183.848 367.774C198.083 372.254 214.155 369.656 224.941 365.859C228.491 364.593 231.946 363.074 235.278 361.312C222.04 345.419 198.632 334.398 169.198 335.529Z" fill="black"/>
<path d="M178.17 416.853H177.778C128.498 406.269 110.354 375.167 103.858 357.56C95.4576 334.667 94.7296 309.591 102.043 295.165C102.26 294.727 102.642 294.393 103.105 294.236C103.568 294.08 104.075 294.114 104.513 294.331C104.951 294.548 105.285 294.929 105.441 295.393C105.598 295.856 105.564 296.362 105.347 296.8C98.4704 310.375 99.2656 334.275 107.341 356.283C113.534 373.173 131.029 403.032 178.55 413.247C178.999 413.333 179.399 413.585 179.671 413.953C179.942 414.32 180.067 414.776 180.019 415.23C179.971 415.684 179.755 416.104 179.412 416.407C179.07 416.709 178.626 416.873 178.17 416.864V416.853Z" fill="#455A64"/>
<path d="M287.314 404.6C292.981 437.416 271.634 468.507 239.613 474.04C207.592 479.573 177.038 457.464 171.36 424.648C166.589 397.029 181.552 374.013 205.509 364.168C212.549 361.29 220.014 359.591 227.606 359.139C256.558 357.358 282.094 374.438 287.314 404.6Z" fill="#455A64"/>
<mask id="mask0_3977_5802" style="mask-type:luminance" maskUnits="userSpaceOnUse" x="170" y="359" width="119" height="116">
<path d="M287.314 404.6C292.981 437.416 271.634 468.507 239.613 474.04C207.592 479.573 177.038 457.464 171.36 424.648C166.589 397.029 181.552 374.013 205.509 364.168C212.549 361.29 220.014 359.591 227.606 359.139C256.558 357.358 282.094 374.438 287.314 404.6Z" fill="white"/>
</mask>
<g mask="url(#mask0_3977_5802)">
<path opacity="0.15" d="M325.226 413.975C311.423 418.685 296.912 420.977 282.33 420.751C285.263 419.578 288.121 418.224 290.886 416.696C297.17 413.336 305.021 409.573 306.734 402.136C307.07 400.747 305.368 401.016 304.707 401.565C299.802 405.608 293.899 410.749 287.493 414.669C280.286 418.982 271.694 420.354 263.502 418.499C261.811 418.13 260.142 417.715 258.418 417.256C264.233 416.113 269.826 414.04 274.982 411.119C286.91 404.32 293.037 394.778 295.142 381.483C295.389 379.983 293.854 379.49 292.902 380.464C291.066 382.29 290.73 384.227 289.89 386.714C287.19 394.554 283.438 399.101 276.752 404.007C272.035 407.427 266.716 409.928 261.072 411.376C258.205 412.093 255.237 412.216 252.336 412.664C249.358 413.211 246.286 412.917 243.466 411.813C241.268 410.788 239.139 409.621 237.093 408.319C249.648 407.579 263.67 396.48 271.734 388.965C280.269 381.002 286.44 371.045 285.062 359.218C284.827 357.101 282.386 358.378 282.094 359.811C280.974 365.333 280.47 368.962 277.894 374.226C275.294 379.325 271.654 383.823 267.21 387.431C257.936 395.461 245.168 404.107 232.568 405.261C230.81 403.962 229.062 402.607 227.405 401.162C236.846 397.634 244.91 390.589 251.507 382.973C255.469 378.55 258.549 373.41 260.579 367.831C261.845 364.269 264.667 358.389 263.178 354.659C262.472 352.912 260.31 354.57 260.187 355.779C259.302 364.863 254.094 373.699 248.304 380.655C245.549 372.994 243.634 366.263 244.16 357.795C244.47 353.793 245.028 349.813 245.829 345.879C246.075 344.613 246.49 343.37 245.829 342.194C244.922 340.503 242.794 343.135 243.107 344.367C243.029 344.053 241.987 345.677 241.886 345.789C240.934 347.447 241.024 349.933 240.766 351.792C240.22 354.908 239.902 358.06 239.814 361.223C239.613 369.555 241.92 376.723 245.134 384.239C242.097 387.121 238.822 389.744 235.346 392.079C233.229 390.511 231.75 386.479 230.563 384.317C228.633 381.197 226.941 377.936 225.501 374.562C222.398 366.487 223.138 356.944 219.755 349.283C219.363 348.387 217.717 349.418 217.683 350.123C217.392 360.629 219.128 371.471 223.731 381.035C225.523 384.776 228.122 391.272 231.482 394.89C230.632 395.526 229.707 396.052 228.726 396.458C227.695 396.945 226.59 397.259 225.456 397.387C222.79 397.567 221.301 395.147 219.71 393.389C217.858 391.316 216.119 389.144 214.502 386.882C210.529 381.402 207.441 375.333 205.352 368.895C203.717 363.53 204.098 357.347 201.522 352.285C200.278 349.843 197.277 352.363 197.96 354.469C199.763 360.069 198.789 366.195 200.525 371.919C202.998 379.535 206.698 386.696 211.478 393.12C219.097 403.346 228.985 411.666 240.363 417.424C256.043 425.107 276.125 429.554 294.818 427.728C274.504 431.583 253.511 429.518 234.338 421.781C212.498 412.967 190.658 393.21 184.968 369.634C184.733 368.738 183.131 369.231 183.064 370.015C181.944 381.674 190.904 394.016 198.554 401.979C207.312 411.051 216.608 419.619 228.357 424.76C241.136 430.36 253.949 434.09 268.005 434.347C273.671 434.516 279.342 434.397 284.995 433.989C277.972 436.352 270.649 437.702 263.245 437.999C253.646 438.122 244.115 436.419 234.797 434.28C219.654 430.797 206.998 424.581 195.541 413.963C190.957 409.527 186.857 404.616 183.31 399.314C179.838 394.352 174.731 388.651 173.432 382.659C173.141 381.304 170.89 382.794 170.979 383.779C171.338 388.719 173.678 393.411 176.221 397.578C177.643 399.93 179.278 402.114 180.88 404.298C182.507 406.259 183.513 408.661 183.77 411.197C183.859 413.347 183.075 415.139 182.762 417.2C182.448 419.261 182.078 420.975 181.754 422.867C181.117 426.789 180.799 430.755 180.802 434.728C180.69 447.519 186.794 458.595 193.693 468.922C194.41 470.042 196.258 468.283 195.933 467.298C192.147 455.392 184.867 445.962 185.55 432.858C185.898 426.339 187.79 420.325 189.28 414.109C189.403 414.243 189.538 414.4 189.661 414.512C191.834 416.752 194.141 418.992 196.493 421.019C198.397 422.655 200.547 424.503 200.267 427.269C199.898 429.129 199.37 430.954 198.688 432.723C198.164 434.762 197.789 436.835 197.568 438.928C197.12 442.523 196.974 446.152 196.706 449.759C195.866 461.496 198.946 476.538 207.435 485.307C207.652 485.485 207.923 485.582 208.202 485.582C208.482 485.582 208.753 485.485 208.97 485.307C210.152 488.003 211.797 490.47 213.83 492.599C213.999 492.766 214.22 492.87 214.457 492.893C214.693 492.916 214.93 492.856 215.128 492.724C215.325 492.593 215.471 492.397 215.541 492.17C215.611 491.943 215.6 491.699 215.51 491.479C212.192 482.891 210.781 473.685 211.378 464.498C219.498 468.149 231.034 467.555 238.784 465.147C244.76 463.43 250.429 460.785 255.584 457.307C261.301 453.573 266.211 448.728 270.021 443.061C279.922 442.243 288.165 439.175 296.834 434C297.191 433.723 297.472 433.36 297.65 432.945C297.828 432.529 297.898 432.076 297.853 431.626C300.003 430.991 302.1 430.19 304.125 429.229C304.632 428.868 305.002 428.347 305.175 427.749C305.348 427.151 305.313 426.512 305.077 425.936C312.472 424.255 319.483 421.192 325.741 416.909C326.906 416.192 327.331 413.28 325.226 413.975ZM216.16 445.234C216.619 444.215 217.112 443.184 217.638 442.187C218.686 440.141 219.861 438.163 221.155 436.263C221.23 436.145 221.293 436.022 221.346 435.893C223.444 436.64 225.587 437.334 227.774 437.976C232.254 439.208 236.902 440.283 241.64 441.123C241.248 441.123 239.87 442.411 239.546 442.647C238.806 443.173 238.045 443.699 237.306 444.181C235.82 445.14 234.258 445.976 232.635 446.679C229.55 448.094 226.206 448.856 222.813 448.919C221.137 448.833 219.479 448.524 217.885 448C216.574 447.619 215.544 446.679 216.16 445.234ZM206.349 461.44C205.8 466.147 205.8 470.901 206.349 475.608C203.302 467.331 201.197 458.965 201.757 449.904C202.216 442.473 203.509 435.117 205.61 427.975C205.61 428.333 210.179 430.719 210.65 430.987C211.882 431.671 215.074 432.589 215.566 434.045C215.656 434.326 215.656 434.627 215.566 434.907C215.361 435.56 215.047 436.174 214.637 436.722C209.619 444.215 207.301 452.48 206.349 461.44ZM255.08 451.842C250.623 455.083 245.683 457.6 240.442 459.301C232.344 462.023 220.349 463.266 212.016 459.301C212.394 456.86 212.932 454.447 213.629 452.077C217.739 454.048 223.966 453.847 227.674 453.197C234.394 451.954 243.454 448.179 247.184 442.053C253.18 442.879 259.233 443.208 265.283 443.039C262.195 446.317 258.776 449.267 255.08 451.842Z" fill="black"/>
</g>
<g opacity="0.15">
<path d="M182.93 427.638C177.968 413.616 170.789 414.613 170.789 414.613C170.789 414.613 173.734 412.91 181.877 413.93C181.877 413.93 179.637 407.814 171.461 404.174C170.187 410.936 170.153 417.874 171.36 424.648C172.8 433.02 175.962 441.002 180.645 448.09C182.862 443.52 185.707 435.49 182.93 427.638Z" fill="black"/>
<path d="M200.189 466.726C201.941 462.75 204.505 459.183 207.715 456.254C217.929 446.925 221.547 444.27 221.48 437.898C221.401 429.475 213.326 430.057 210.918 431.502C210.918 431.502 208.678 428.03 202.753 429.677C199.724 430.584 197.17 432.643 195.641 435.411C195.641 435.411 191.643 434.997 187.488 439.454C185.058 442.271 182.814 445.241 180.768 448.347C185.784 455.85 192.421 462.131 200.189 466.726Z" fill="black"/>
</g>
<path d="M285.174 379.795C284.972 374.822 281.96 368.136 278.062 362.626C271.566 353.442 262.214 347.752 252.784 344.706L228.48 359.826C254.397 358.952 263.323 372.594 265.72 380.21C267.377 385.474 268.777 389.528 271.846 389.528C272.634 389.6 273.421 389.369 274.045 388.882C274.669 388.396 275.084 387.689 275.206 386.907C277.323 388.923 280.492 387.725 280.627 385.138C281.159 385.411 281.766 385.501 282.355 385.396C282.943 385.291 283.481 384.996 283.886 384.555C284.415 383.892 284.802 383.127 285.023 382.309C285.245 381.49 285.296 380.635 285.174 379.795Z" fill="#5EEAD4"/>
<path opacity="0.15" d="M252.784 344.657L228.48 359.822C231.538 359.706 234.6 359.818 237.641 360.158C244.606 356.499 250.903 351.69 256.267 345.934C255.125 345.464 253.963 345.038 252.784 344.657Z" fill="black"/>
<path opacity="0.15" d="M283.898 384.552C283.902 384.534 283.902 384.514 283.898 384.496C283.647 384.583 283.381 384.617 283.117 384.596C282.853 384.574 282.596 384.498 282.363 384.371C282.13 384.245 281.926 384.071 281.764 383.861C281.602 383.651 281.486 383.409 281.422 383.152C280.594 381.17 280.302 380.24 279.899 379.792C280.421 381.523 280.656 383.328 280.594 385.134C281.131 385.418 281.747 385.515 282.345 385.41C282.944 385.304 283.49 385.003 283.898 384.552Z" fill="black"/>
<path opacity="0.15" d="M278.779 387.699C278.134 387.64 277.527 387.369 277.051 386.93C276.575 386.491 276.258 385.907 276.147 385.269C275.52 383.185 275.15 382.536 274.702 382.088C275.146 383.652 275.321 385.281 275.218 386.904C275.672 387.365 276.249 387.686 276.881 387.827C277.513 387.968 278.172 387.924 278.779 387.699Z" fill="black"/>
<path d="M100.901 416.998C103.342 436.363 110.354 448.123 124.208 458.662C138.062 469.202 157.248 474.88 165.76 478.094C174.272 481.309 180.712 485.374 186.458 479.965C192.203 474.555 191.106 463.534 201.331 454.205C211.557 444.875 215.163 442.221 215.107 435.848C215.018 427.426 206.954 428.064 204.534 429.453C204.534 429.453 202.294 425.981 196.37 427.627C193.342 428.539 190.79 430.596 189.258 433.362C189.258 433.362 185.259 432.947 181.104 437.405C177.856 440.888 172.144 449.725 172.144 449.725C172.144 449.725 180.678 437.405 176.501 425.611C171.539 411.589 164.36 412.586 164.36 412.586C164.36 412.586 167.306 410.883 175.459 411.902C175.459 411.902 171.685 401.823 156.677 399.851C152.297 399.3 147.85 399.752 143.67 401.172C139.491 402.592 135.689 404.944 132.552 408.05L100.901 416.998Z" fill="#5EEAD4"/>
<path opacity="0.15" d="M191.744 430.237C190.745 431.13 189.904 432.187 189.258 433.362C192.472 433.306 196.37 433.586 198.363 439.376C198.363 439.376 200.872 432.846 191.744 430.237Z" fill="black"/>
<path opacity="0.15" d="M206.281 436.072C206.281 436.072 209.227 434.202 207.177 428.68C206.256 428.771 205.359 429.033 204.534 429.453C205.33 430.338 205.904 431.4 206.208 432.551C206.512 433.702 206.537 434.909 206.281 436.072Z" fill="black"/>
<path d="M197.378 447.407C193.687 448.498 190.316 450.467 187.552 453.145C184.789 455.823 182.715 459.13 181.507 462.784C178.573 470.949 180.04 476.224 183.322 476.863C186.603 477.501 188.149 476.975 190.758 472.517C192.819 467.029 194.69 460.264 201.331 454.205C203.291 452.413 205.016 450.845 206.506 449.49C206.08 447.194 202.899 445.76 197.378 447.407Z" fill="#F28F8F"/>
<path d="M194.723 440.451C192.483 439.679 190.478 444.931 193.054 445.827C195.193 446.533 197.713 441.482 194.723 440.451Z" fill="#F28F8F"/>
<path d="M203.75 437.685C201.51 436.912 199.506 442.165 202.082 443.072C204.221 443.778 206.741 438.715 203.75 437.685Z" fill="#F28F8F"/>
<path d="M210.784 437.136C208.544 436.363 206.528 441.616 209.115 442.512C211.254 443.218 213.763 438.167 210.784 437.136Z" fill="#F28F8F"/>
<path opacity="0.05" d="M179.928 479.965C166.634 477.098 168.414 469.885 162.467 465.651C156.52 461.418 143.27 462.997 122.024 445.614C100.778 428.232 99.792 390.51 113.366 374.08C104.798 384.619 99.2432 398.205 100.901 417.01C101.163 420.004 101.692 422.969 102.48 425.869C105.84 440.16 112.56 449.848 124.208 458.674C138.074 469.202 157.248 474.925 165.76 478.106C174.272 481.286 180.712 485.386 186.458 479.976C186.917 479.536 187.337 479.056 187.712 478.542C186.581 479.3 185.307 479.816 183.968 480.061C182.629 480.306 181.254 480.273 179.928 479.965Z" fill="black"/>
<path opacity="0.15" d="M230.048 386.859C223.115 377.328 217.661 372.87 209.249 368.166V362.712C207.984 363.149 206.729 363.619 205.509 364.123C193.864 368.754 184.063 377.08 177.609 387.822C203.213 385.896 214.737 398.955 217.593 406.47C219.598 411.746 221.267 415.8 224.403 415.621C225.206 415.636 225.984 415.348 226.584 414.815C227.184 414.281 227.561 413.541 227.64 412.742C229.88 414.669 233.094 413.269 233.072 410.626C233.632 410.871 234.257 410.926 234.852 410.782C235.447 410.639 235.978 410.304 236.365 409.83C236.863 409.12 237.21 408.316 237.386 407.466C237.561 406.617 237.56 405.74 237.384 404.891C236.88 399.84 234.08 392.437 230.048 386.859Z" fill="black"/>
<path d="M238.448 401.139C237.955 396.077 235.177 388.673 231.123 383.107C224.179 373.576 218.736 369.118 210.313 364.414V357.784C210.313 357.784 179.973 364 179.413 384.16C205.833 381.73 215.757 395.136 218.613 402.774C220.617 408.049 222.286 412.104 225.422 411.925C226.225 411.94 227.004 411.652 227.604 411.119C228.203 410.585 228.58 409.845 228.659 409.046C230.899 410.973 234.113 409.573 234.091 406.929C234.651 407.175 235.277 407.23 235.871 407.086C236.466 406.943 236.997 406.608 237.384 406.134C238.56 404.712 238.627 402.931 238.448 401.139Z" fill="#5EEAD4"/>
<path opacity="0.15" d="M237.44 406.078V406.022C237.189 406.126 236.919 406.177 236.647 406.17C236.376 406.163 236.108 406.1 235.862 405.984C235.617 405.868 235.398 405.702 235.22 405.496C235.042 405.291 234.91 405.05 234.83 404.79C233.867 402.819 233.554 401.878 233.072 401.43C233.715 403.167 234.063 405 234.102 406.851C234.666 407.11 235.299 407.175 235.903 407.035C236.507 406.895 237.048 406.559 237.44 406.078Z" fill="black"/>
<path opacity="0.15" d="M232.389 409.595C231.726 409.571 231.09 409.33 230.578 408.909C230.066 408.488 229.707 407.911 229.555 407.266C228.793 405.171 228.368 404.533 227.886 404.107C228.432 405.677 228.709 407.328 228.704 408.99C229.195 409.434 229.804 409.727 230.457 409.834C231.111 409.942 231.781 409.859 232.389 409.595Z" fill="black"/>
<path opacity="0.15" d="M187.286 368.693C197.209 370.989 207.704 370.238 216.529 368.256C214.614 366.923 212.576 365.68 210.313 364.414V357.784C210.313 357.784 196.448 360.64 187.286 368.693Z" fill="black"/>
<path d="M216.854 291.458C219.912 281.77 233.285 269.551 244.552 273.101C250.891 275.095 248.349 298.491 248.349 298.491C248.349 298.491 227.752 300.071 216.854 291.458Z" fill="#5EEAD4"/>
<path opacity="0.15" d="M216.854 291.458C219.912 281.77 233.285 269.551 244.552 273.101C250.891 275.095 248.349 298.491 248.349 298.491C248.349 298.491 227.752 300.071 216.854 291.458Z" fill="black"/>
<path d="M226.43 296.207C236.801 299.376 248.349 298.447 248.349 298.447C248.349 298.447 250.891 275.05 244.552 273.056C240.441 272.496 230.473 278.757 226.43 296.207Z" fill="#FFA8A7"/>
<path d="M239.747 287.594C238.784 284.995 240.643 281.646 240.643 281.646C236.846 281.646 231.896 285.544 231.437 291.827C231.437 291.827 239.176 301.146 247.117 296.206C247.419 294.874 247.983 293.614 248.774 292.499C248.841 290.886 248.886 289.072 248.853 287.202C245.822 286.714 242.724 286.848 239.747 287.594Z" fill="#F28F8F"/>
<path d="M190.59 300.686C182.156 295.086 164.08 293.843 157.494 303.654C153.787 309.176 170.419 325.875 170.419 325.875C170.419 325.875 187.454 314.216 190.59 300.686Z" fill="#5EEAD4"/>
<path opacity="0.15" d="M190.59 300.686C182.156 295.086 164.08 293.843 157.494 303.654C153.787 309.176 170.419 325.875 170.419 325.875C170.419 325.875 187.454 314.216 190.59 300.686Z" fill="black"/>
<path d="M186.077 310.374C179.95 319.334 170.397 325.875 170.397 325.875C170.397 325.875 153.765 309.176 157.472 303.654C160.328 300.608 172.021 299.275 186.077 310.374Z" fill="#FFA8A7"/>
<path d="M166.342 307.575C166.342 307.575 169.893 309.031 170.766 311.662C170.766 311.662 165.614 313.903 163.072 317.487C164.024 318.719 164.998 319.883 165.906 320.947C167.547 321.25 169.087 321.958 170.386 323.008C179.67 321.888 179.346 310.442 179.346 310.442C176.075 305.76 169.31 305.2 166.342 307.575Z" fill="#F28F8F"/>
<path d="M226.117 360.719C215.331 364.515 199.237 367.069 185.024 362.645C168.056 357.359 167.104 334.063 171.248 323.333C175.392 312.603 183.848 301.672 203.257 294.829C222.667 287.986 236.129 291.2 246.064 296.979C255.998 302.759 269.875 321.496 259.963 336.247C251.641 348.611 236.902 356.922 226.117 360.719Z" fill="#5EEAD4"/>
<path d="M226.027 358.288C247.52 350.705 246.4 338.128 240.968 333.065C235.536 328.003 226.531 326.905 216.25 330.523C205.968 334.141 199.651 340.67 198.576 347.995C197.501 355.32 204.523 365.859 226.027 358.288Z" fill="#F0F0F0"/>
<path d="M220.147 349.283C220.147 349.283 221.021 352.923 223.731 352.016C226.441 351.109 224.851 347.671 224.851 347.671L221.491 345.229L220.147 349.283Z" fill="#F28F8F"/>
<path d="M220.013 341.253L214.961 340.693C214.777 340.672 214.609 340.579 214.493 340.434C214.378 340.289 214.325 340.104 214.345 339.92C214.366 339.736 214.459 339.568 214.604 339.452C214.749 339.336 214.934 339.283 215.118 339.304L219.52 339.797L222.712 336.694C222.776 336.629 222.853 336.578 222.938 336.543C223.022 336.507 223.113 336.489 223.205 336.489C223.296 336.489 223.387 336.507 223.472 336.543C223.556 336.578 223.633 336.629 223.697 336.694C223.826 336.826 223.898 337.003 223.898 337.187C223.898 337.371 223.826 337.548 223.697 337.68L220.013 341.253Z" fill="#455A64"/>
<path d="M216.362 351.68C215.178 351.679 214.023 351.311 213.057 350.627C212.09 349.943 211.359 348.977 210.963 347.861C210.902 347.686 210.914 347.493 210.995 347.326C211.075 347.159 211.219 347.031 211.395 346.971C211.57 346.91 211.762 346.921 211.929 347.002C212.096 347.083 212.224 347.226 212.285 347.402C212.667 348.484 213.463 349.371 214.498 349.867C215.534 350.363 216.724 350.427 217.807 350.045C218.889 349.663 219.776 348.867 220.272 347.832C220.767 346.796 220.831 345.606 220.45 344.523L219.117 340.738C219.085 340.651 219.07 340.559 219.074 340.467C219.078 340.375 219.1 340.284 219.139 340.2C219.178 340.117 219.234 340.042 219.302 339.98C219.371 339.918 219.451 339.87 219.538 339.84C219.625 339.809 219.717 339.796 219.81 339.802C219.902 339.808 219.992 339.832 220.075 339.872C220.158 339.913 220.231 339.97 220.292 340.04C220.352 340.11 220.399 340.191 220.427 340.279L221.76 344.064C222.01 344.772 222.118 345.523 222.078 346.273C222.037 347.023 221.849 347.757 221.525 348.434C221.2 349.112 220.745 349.718 220.186 350.219C219.627 350.721 218.974 351.107 218.266 351.355C217.655 351.573 217.01 351.683 216.362 351.68Z" fill="#455A64"/>
<path d="M225.836 348.32C224.984 348.317 224.142 348.126 223.372 347.76C222.693 347.438 222.085 346.983 221.583 346.424C221.082 345.864 220.696 345.211 220.449 344.501L219.116 340.715C219.084 340.628 219.07 340.536 219.073 340.444C219.077 340.352 219.099 340.261 219.138 340.178C219.178 340.094 219.233 340.019 219.302 339.957C219.37 339.895 219.45 339.848 219.538 339.817C219.625 339.787 219.717 339.774 219.809 339.779C219.901 339.785 219.992 339.809 220.074 339.85C220.157 339.891 220.231 339.948 220.292 340.017C220.352 340.087 220.398 340.168 220.427 340.256L221.76 344.041C221.951 344.58 222.247 345.076 222.632 345.499C223.016 345.922 223.481 346.264 224 346.505C224.772 346.874 225.636 347.006 226.484 346.884C227.331 346.762 228.123 346.392 228.76 345.821C229.397 345.249 229.851 344.502 230.064 343.673C230.278 342.844 230.241 341.971 229.958 341.163C229.897 340.989 229.908 340.798 229.988 340.633C230.068 340.467 230.21 340.339 230.384 340.278C230.47 340.247 230.561 340.232 230.653 340.237C230.744 340.241 230.834 340.264 230.916 340.304C230.999 340.343 231.073 340.399 231.133 340.468C231.194 340.537 231.24 340.617 231.269 340.704C231.77 342.134 231.684 343.705 231.029 345.072C230.374 346.439 229.203 347.49 227.774 347.995C227.152 348.217 226.496 348.327 225.836 348.32Z" fill="#455A64"/>
<path d="M240.867 319.29C241.197 320.226 241.241 321.239 240.995 322.201C240.748 323.162 240.222 324.029 239.483 324.691C238.744 325.354 237.825 325.782 236.843 325.923C235.86 326.063 234.858 325.908 233.963 325.479C233.068 325.05 232.321 324.365 231.816 323.51C231.31 322.656 231.07 321.671 231.124 320.68C231.178 319.689 231.526 318.736 232.122 317.943C232.718 317.149 233.535 316.55 234.472 316.221C235.727 315.78 237.106 315.856 238.305 316.432C239.504 317.007 240.426 318.035 240.867 319.29Z" fill="#455A64"/>
<path d="M190.019 337.199C190.35 338.131 190.949 338.945 191.742 339.537C192.535 340.13 193.486 340.474 194.474 340.526C195.463 340.578 196.444 340.336 197.295 339.83C198.146 339.325 198.828 338.578 199.255 337.686C199.682 336.793 199.834 335.793 199.693 334.814C199.553 333.834 199.125 332.918 198.463 332.182C197.802 331.445 196.938 330.921 195.979 330.676C195.02 330.431 194.01 330.475 193.077 330.803C191.824 331.247 190.799 332.17 190.225 333.369C189.652 334.568 189.578 335.945 190.019 337.199Z" fill="#455A64"/>
<path d="M175.403 338.05C175.266 338.05 175.13 338.024 175.003 337.972C174.876 337.92 174.761 337.844 174.664 337.747C170.833 333.839 164.371 329.829 155.355 332.976C155.094 333.068 154.806 333.053 154.556 332.933C154.306 332.813 154.114 332.599 154.022 332.338C153.93 332.076 153.946 331.789 154.065 331.539C154.185 331.289 154.399 331.097 154.661 331.005C164.741 327.511 171.897 331.946 176.153 336.28C176.251 336.377 176.328 336.492 176.381 336.619C176.434 336.746 176.461 336.882 176.461 337.019C176.461 337.157 176.434 337.293 176.381 337.42C176.328 337.547 176.251 337.662 176.153 337.759C176.055 337.856 175.938 337.932 175.809 337.982C175.679 338.032 175.541 338.055 175.403 338.05Z" fill="#455A64"/>
<path d="M173.085 340.648C172.89 340.652 172.699 340.597 172.536 340.491C169.075 338.363 162.781 338.352 159.477 339.775C159.351 339.83 159.215 339.861 159.078 339.864C158.941 339.867 158.804 339.843 158.676 339.793C158.548 339.743 158.431 339.668 158.332 339.572C158.233 339.477 158.154 339.363 158.099 339.237C158.007 338.98 158.012 338.698 158.113 338.444C158.214 338.191 158.404 337.983 158.648 337.859C162.433 336.235 169.523 336.179 173.633 338.722C173.868 338.867 174.035 339.1 174.098 339.369C174.161 339.638 174.115 339.921 173.969 340.155C173.878 340.307 173.748 340.433 173.593 340.519C173.437 340.606 173.262 340.65 173.085 340.648Z" fill="#455A64"/>
<path d="M156.934 349.44C156.721 349.436 156.514 349.368 156.341 349.245C156.167 349.121 156.036 348.947 155.963 348.747C155.89 348.547 155.88 348.329 155.933 348.123C155.987 347.917 156.101 347.732 156.262 347.592C162.456 342.373 170.475 341.41 175.302 342.72C175.552 342.807 175.759 342.985 175.883 343.219C176.006 343.452 176.035 343.724 175.966 343.979C175.896 344.234 175.732 344.453 175.507 344.591C175.282 344.73 175.013 344.777 174.754 344.725C170.43 343.605 163.229 344.456 157.606 349.205C157.418 349.361 157.179 349.445 156.934 349.44Z" fill="#455A64"/>
<path d="M251.395 311.281H251.294C251.022 311.256 250.77 311.124 250.594 310.914C250.418 310.705 250.332 310.434 250.354 310.161C250.947 304.113 253.714 296.161 263.794 292.589C264.053 292.498 264.338 292.513 264.586 292.631C264.834 292.749 265.026 292.96 265.119 293.219C265.212 293.477 265.199 293.762 265.083 294.011C264.967 294.26 264.757 294.454 264.499 294.549C255.539 297.763 252.974 304.92 252.437 310.363C252.409 310.618 252.287 310.854 252.094 311.024C251.901 311.194 251.652 311.286 251.395 311.281Z" fill="#455A64"/>
<path d="M254.822 311.853C254.705 311.85 254.588 311.831 254.475 311.797C254.346 311.752 254.226 311.681 254.124 311.589C254.022 311.498 253.94 311.386 253.881 311.262C253.823 311.138 253.79 311.004 253.784 310.866C253.778 310.729 253.8 310.593 253.848 310.464C255.45 305.917 261.005 301.504 264.981 300.384C265.113 300.347 265.252 300.336 265.388 300.352C265.525 300.369 265.657 300.412 265.776 300.48C265.896 300.547 266.001 300.638 266.086 300.747C266.17 300.855 266.233 300.979 266.269 301.112C266.306 301.244 266.317 301.381 266.3 301.517C266.284 301.653 266.24 301.784 266.172 301.903C266.105 302.022 266.014 302.126 265.905 302.209C265.797 302.293 265.673 302.354 265.541 302.389C262.069 303.363 257.163 307.306 255.808 311.136C255.74 311.344 255.608 311.525 255.431 311.654C255.254 311.782 255.041 311.852 254.822 311.853Z" fill="#455A64"/>
<path d="M255.886 316.277C255.668 316.277 255.456 316.206 255.281 316.075C255.17 315.995 255.076 315.894 255.004 315.777C254.932 315.661 254.883 315.531 254.861 315.396C254.84 315.261 254.845 315.123 254.876 314.989C254.908 314.856 254.966 314.73 255.046 314.619C257.992 310.576 264.824 306.331 272.966 306.499C273.242 306.499 273.507 306.609 273.702 306.804C273.898 307 274.008 307.265 274.008 307.541C274.008 307.817 273.898 308.082 273.702 308.277C273.507 308.473 273.242 308.582 272.966 308.582C265.596 308.414 259.448 312.234 256.816 315.851C256.71 315.996 256.569 316.111 256.407 316.186C256.244 316.26 256.064 316.292 255.886 316.277Z" fill="#455A64"/>
<path d="M233.318 291.973C234.214 287.874 238.09 283.931 241.886 283.931C241.886 283.931 240.016 287.291 240.979 289.879C240.979 289.879 250.667 287.336 254.162 291.827C254.162 291.827 249.771 292.634 248.349 298.491C240.408 303.431 233.318 291.973 233.318 291.973Z" fill="#5EEAD4"/>
<path d="M178.08 311.36C174.821 308.717 169.333 308.056 166.365 310.43C166.365 310.43 169.915 311.886 170.789 314.518C170.789 314.518 161.638 318.573 161.706 324.274C161.706 324.274 165.67 322.179 170.442 325.864C179.704 324.8 178.08 311.36 178.08 311.36Z" fill="#5EEAD4"/>
<path d="M212.061 292.32C210.739 292.622 210.638 290.17 211.243 287.123C211.792 284.368 214.01 278.869 210.123 278.936C206.237 279.003 202.059 282.498 200.424 289.15C199.337 287.726 198.524 286.112 198.027 284.39C197.411 281.882 194.275 281.658 192.898 286.63C191.845 290.427 193.67 294.224 194.678 295.814C195.238 296.699 195.003 298.166 193.133 299.174C193.133 299.174 201.208 301.941 206.651 299.174C212.094 296.408 212.061 292.32 212.061 292.32Z" fill="#5EEAD4"/>
<path d="M202.485 313.6C202.808 313.576 203.122 313.488 203.41 313.341C203.698 313.194 203.954 312.991 204.163 312.744C204.372 312.496 204.529 312.21 204.625 311.901C204.722 311.592 204.756 311.268 204.725 310.946C204.113 305.71 201.966 300.773 198.554 296.755C196.952 297.438 195.418 298.155 193.984 298.894C197.479 302.994 199.472 307.182 199.864 311.405C199.915 312.015 200.193 312.584 200.643 312.998C201.093 313.413 201.682 313.644 202.295 313.645L202.485 313.6Z" fill="#455A64"/>
<path d="M217.28 305.256C217.391 305.81 217.69 306.31 218.127 306.669C218.564 307.028 219.111 307.225 219.677 307.227C219.833 307.244 219.991 307.244 220.147 307.227C220.462 307.166 220.761 307.042 221.029 306.865C221.296 306.687 221.525 306.459 221.704 306.193C221.883 305.926 222.008 305.628 222.071 305.313C222.135 304.999 222.135 304.675 222.073 304.36C221.041 299.616 218.715 295.251 215.353 291.749C213.517 292.051 211.635 292.443 209.664 292.947C213.819 296.8 216.384 300.91 217.28 305.256Z" fill="#455A64"/>
<path d="M201.734 295.411C204.299 298.245 208.398 303.677 209.373 310.274C209.456 310.852 209.746 311.382 210.188 311.764C210.63 312.147 211.196 312.357 211.781 312.357H212.15C212.79 312.26 213.366 311.913 213.75 311.392C214.135 310.871 214.296 310.219 214.2 309.579C213.157 303.724 210.57 298.253 206.707 293.731C205.587 294.067 204.467 294.437 203.258 294.851L201.734 295.411Z" fill="#455A64"/>
<path d="M113.467 453.174H113.288C113.049 453.152 112.816 453.082 112.604 452.97C112.392 452.858 112.204 452.704 112.051 452.519C111.898 452.334 111.783 452.12 111.713 451.891C111.643 451.661 111.618 451.42 111.642 451.181C112.381 443.475 119.952 430.069 137.816 424.715C155.131 419.518 173.264 425.376 180.79 434.033C180.965 434.212 181.101 434.425 181.191 434.659C181.28 434.892 181.321 435.141 181.311 435.391C181.301 435.641 181.24 435.886 181.132 436.111C181.024 436.337 180.871 436.538 180.682 436.702C180.493 436.866 180.273 436.99 180.035 437.066C179.797 437.142 179.546 437.169 179.297 437.145C179.048 437.12 178.807 437.045 178.588 436.924C178.369 436.803 178.177 436.639 178.024 436.441C172.48 430.057 156.195 423.001 138.824 428.221C122.696 433.059 115.886 444.808 115.237 451.528C115.191 451.97 114.986 452.38 114.661 452.683C114.336 452.986 113.911 453.16 113.467 453.174Z" fill="#455A64"/>
<path d="M131.398 467.175C130.915 467.175 130.451 466.984 130.107 466.645C129.764 466.305 129.567 465.843 129.562 465.36C129.562 461.608 132.328 448.818 141.658 440.787C146.594 436.521 152.672 433.794 159.141 432.944C165.61 432.094 172.187 433.158 178.058 436.005C178.459 436.252 178.751 436.645 178.871 437.101C178.991 437.557 178.932 438.042 178.704 438.455C178.477 438.869 178.099 439.178 177.649 439.321C177.199 439.463 176.712 439.427 176.288 439.219C171.082 436.702 165.252 435.768 159.52 436.532C153.789 437.297 148.407 439.727 144.043 443.52C135.8 450.61 133.202 462.112 133.224 465.282C133.227 465.767 133.038 466.234 132.698 466.58C132.358 466.926 131.895 467.124 131.41 467.13L131.398 467.175Z" fill="#455A64"/>
<path d="M107.946 282.173C102.536 294.918 107.486 322.011 118.586 338.71C130.57 356.742 154.874 379.445 182.134 389.525C182.533 389.678 182.865 389.966 183.074 390.338C183.284 390.71 183.357 391.143 183.281 391.564C183.206 391.984 182.986 392.364 182.66 392.64C182.334 392.916 181.923 393.07 181.496 393.075C181.282 393.075 181.07 393.037 180.869 392.963C152.869 382.592 127.848 359.262 115.539 340.738C103.04 322 98.224 291.861 105.549 278.734C106.075 277.781 106.686 276.878 107.374 276.035C107.76 278.058 107.951 280.113 107.946 282.173Z" fill="#455A64"/>
<path d="M392.011 81.9504L403.234 75.4768V399.28L392.022 405.754L392.011 81.9504Z" fill="#37474F"/>
<path d="M375.189 396.032L392.022 405.754L392.011 81.9504L387.946 79.5984L386.579 93.6656L385.179 78.008L375.189 72.24V396.032Z" fill="#455A64"/>
<path opacity="0.1" d="M392 301.426V261.509C391.35 245.997 390.6 225.669 390.723 216.787L386.837 214.547C386.837 228.088 385.314 253.042 384.485 269.864C383.365 293.709 387.587 324.52 387.766 336.952C387.946 349.384 387.766 403.301 387.766 403.301L389.682 404.421C389.682 404.421 389.11 336.616 390.723 318.606C391.283 312.402 391.698 306.566 392 301.426ZM388.158 309.87C385.594 308.75 386.221 248.483 388.875 249.391C390.981 250.186 390.746 311.002 388.181 309.87H388.158Z" fill="black"/>
<path d="M387.946 79.5985L385.179 78.0081L386.579 93.6657L387.946 79.5985Z" fill="#263238"/>
<path opacity="0.05" d="M380.632 75.376C380.397 92.7136 383.801 104.339 383.734 128.442C383.734 128.442 383.354 111.395 381.058 98.7616C379.542 90.6307 378.688 82.3904 378.504 74.1216L380.632 75.376Z" fill="white"/>
<path opacity="0.05" d="M392 81.9506C392 87.6626 391.754 100.688 391.048 108.707C390.384 119.858 390.298 131.036 390.79 142.195C390.79 142.195 388.786 123.279 389.458 112.067C390.13 100.856 390.118 80.853 390.118 80.853L392 81.9506Z" fill="white"/>
<path opacity="0.1" d="M375.2 136.64V157.405C376.981 146.463 379.77 134.915 380.263 129.998C381.002 122.64 379.77 109.122 378.515 101.483C377.261 93.8448 375.155 80.9648 375.525 72.4752L375.2 72.24V92.8816L375.368 94.2144C376.757 104.429 377.485 119.549 376.97 126.291C376.626 129.778 376.035 133.237 375.2 136.64Z" fill="black"/>
<path opacity="0.05" d="M381.774 284.48C381.438 292.096 384.697 320.499 385.325 329.448C386.557 346.931 385.997 402.248 385.997 402.248L383.757 400.938C383.757 400.938 384.025 338.397 383.757 331.128C383.365 321.093 380.8 293.295 381.774 284.48Z" fill="white"/>
<path opacity="0.1" d="M383.734 213.315C383.734 227.158 383.298 253.411 381.494 264.488C379.062 280.867 378.686 297.486 380.374 313.958C381.631 326.238 381.848 338.602 381.024 350.918C381.024 350.918 380.341 329.571 378.403 312.099C376.723 294.717 376.775 277.211 378.56 259.84C380.083 242.95 380.52 210.817 380.52 210.817L383.734 213.315Z" fill="black"/>
<path opacity="0.05" d="M377.854 209.922C377.854 209.922 377.597 231.907 377.205 239.21C376.813 246.512 375.749 260.77 375.749 260.77C375.749 260.77 375.402 237.362 375.749 229.847C376.096 222.331 375.592 208.208 375.592 208.208L377.854 209.922Z" fill="white"/>
<path opacity="0.05" d="M377.855 331.252C379.109 343.012 379.277 356.777 379.613 361.974C379.949 367.17 380.464 399.079 380.464 399.079L377.855 397.601C377.855 397.601 377.631 364.55 377.552 357.124C377.44 347.57 378.314 337.569 377.855 331.252Z" fill="white"/>
<path opacity="0.1" d="M383.678 80.3938C384.249 89.5218 386.377 98.3138 387.038 104.743C387.699 111.171 388.158 130.962 388.158 130.962L385.918 129.696C385.918 129.696 386.4 111.586 385.28 102.749C384.16 93.9122 383.421 86.2402 383.678 80.3938Z" fill="black"/>
<path d="M403.234 75.477L386.411 65.7554L375.189 72.2402L392.011 81.9506L403.234 75.477Z" fill="#263238"/>
<path opacity="0.15" d="M403.233 260.042L392.022 266.516V282.252L403.233 275.767V260.042Z" fill="black"/>
<path opacity="0.15" d="M392.022 266.515L375.189 256.805V272.53L392.022 282.251V266.515Z" fill="black"/>
<path d="M283.114 155.445L490.605 275.196L502.634 268.274L295.165 148.479L283.114 155.445Z" fill="#263238"/>
<path d="M273.347 147.314L482.149 267.814V219.565L463.669 208.902L461.653 222.97L460.443 207.032L273.347 99.0642L273.358 130.267L279.362 136.248L273.347 134.501V147.314Z" fill="#455A64"/>
<path opacity="0.05" d="M482.149 259.84C471.285 253.546 425.589 227.763 420.325 225.254C405.026 217.93 391.832 212.173 371.358 200.514C371.358 200.514 380.856 207.234 401.33 217.851C410.939 222.802 419.742 227.035 424.368 229.331C428.994 231.627 482.149 262.237 482.149 262.237V259.84Z" fill="white"/>
<path opacity="0.1" d="M273.392 109.413L291.211 119.717C307.171 128.957 317.901 135.61 324.811 141.971C331.722 148.333 345.162 156.386 351.187 159.667C351.187 159.667 344.109 157.091 330.848 148.882C317.587 140.672 315.168 136.382 296.307 125.485L273.392 112.213V109.413Z" fill="black"/>
<path opacity="0.1" d="M482.149 254.061L426.541 221.973C420.493 218.478 406.258 215.734 398.451 211.221C402.722 214.17 407.323 216.609 412.16 218.49C420.101 221.536 474.701 252.358 482.138 256.648L482.149 254.061Z" fill="black"/>
<path opacity="0.05" d="M279.362 136.248L332.539 167.003C344.602 173.981 364.65 187.992 381.539 197.142C398.429 206.293 410.883 211.546 410.883 211.546C410.883 211.546 394.722 206.942 381.36 199.226C367.999 191.509 343.672 176.288 329 167.798L273.358 135.621V134.501L279.362 136.248Z" fill="white"/>
<path opacity="0.05" d="M482.149 236.802C470.949 230.317 433.854 208.936 425.029 203.806C416.203 198.677 402.629 189.246 387.61 180.51C375.807 173.648 363.491 167.71 350.773 162.747C343.965 159.946 337.33 156.74 330.904 153.149C338.77 158.406 347.061 162.999 355.69 166.88C370.597 173.656 388.45 182.986 404.298 194.253C420.146 205.52 482.149 239.971 482.149 239.971V236.802Z" fill="white"/>
<path opacity="0.05" d="M273.403 102.928C273.403 102.928 340.525 141.008 357.303 150.674C374.08 160.339 396.066 173.88 396.066 173.88C396.066 173.88 360.64 155.008 325.091 134.479L273.403 104.575V102.928Z" fill="white"/>
<path opacity="0.1" d="M482.149 227.741C482.149 227.741 404.611 182.941 382.749 170.33C360.886 157.718 336.549 146.014 336.549 146.014C336.549 146.014 354.704 158.021 381.551 173.6C389.503 178.214 482.149 231.705 482.149 231.705V227.752" fill="black"/>
<path opacity="0.1" d="M273.347 139.731L333.435 174.451C345.755 181.575 377.709 201.052 385.325 205.879C385.325 205.879 353.864 189.347 312.021 165.144L273.347 142.744V139.731Z" fill="black"/>
<path opacity="0.1" d="M273.37 128.8L323.982 158.077C335.754 164.887 363.182 183.4 375.29 190.378C387.397 197.355 467.007 240.711 482.149 249.469V246.109C472.752 240.666 396.469 191.151 378.246 180.6C360.024 170.05 341.365 164.763 330.008 158.2L273.37 125.44V128.8ZM352.128 171.887C352.128 170.195 367.674 177.296 378.358 183.467C387.778 188.922 406.493 201.522 406.493 203.09C406.493 204.658 388.203 194.847 378.358 189.146C368.514 183.445 352.128 173.6 352.128 171.875V171.887Z" fill="black"/>
<path opacity="0.05" d="M273.403 115.819C280.762 120.075 303.643 133.045 310.072 137.939C316.501 142.834 323.064 150.73 335.384 157.853C335.384 157.853 322.672 152.544 315.359 145.611C308.045 138.678 273.336 119.258 273.336 119.258L273.403 115.819Z" fill="white"/>
<path opacity="0.2" d="M295.254 111.709L460.589 209.059L461.709 213.573L463.4 210.728L480.054 221.133L482.149 267.814V219.565L463.669 208.903L462.056 207.939L460.443 207.032L295.254 111.709Z" fill="white"/>
<path d="M494.178 260.859L482.149 267.814V219.565L494.178 212.475V260.859Z" fill="#37474F"/>
<path d="M463.669 208.902L461.653 222.97L460.443 207.032L462.056 207.939L463.669 208.902Z" fill="#263238"/>
<path d="M460.443 207.032L462.056 207.939L461.653 222.97L460.443 207.032Z" fill="#37474F"/>
<path d="M273.358 130.267L275.15 133.594L273.358 134.501L279.362 136.248L273.358 130.267Z" fill="#37474F"/>
<path d="M273.358 130.267L275.15 133.594L279.362 136.248L273.358 130.267Z" fill="#263238"/>
<path d="M487.245 260.781L482.149 260.96L472.808 256.995L482.149 266L487.245 260.781Z" fill="#263238"/>
<path d="M487.245 260.781L482.149 263.357L472.808 256.995L482.149 260.96L487.245 260.781Z" fill="#37474F"/>
<path d="M273.347 99.0641L482.149 219.565L494.178 212.475L285.51 92.0417L273.347 99.0641Z" fill="#263238"/>
<path d="M278.947 99.7249L486.439 219.475V171.226L299.544 63.3697L297.528 77.4369L296.318 61.4993L278.947 51.4753V99.7249Z" fill="#455A64"/>
<path opacity="0.05" d="M486.438 211.445C475.574 205.162 429.89 179.379 424.614 176.87C409.315 169.546 396.122 163.789 375.659 152.13C375.659 152.13 385.146 158.85 405.619 169.467C415.229 174.418 424.043 178.651 428.658 180.947C433.272 183.243 486.438 213.853 486.438 213.853V211.445Z" fill="white"/>
<path opacity="0.1" d="M278.992 61.8242L295.501 71.3778C311.472 80.6178 322.191 87.2594 329.101 93.621C336.011 99.9827 349.44 108.047 355.511 111.317C355.511 111.317 348.421 108.752 335.16 100.531C321.899 92.3107 319.48 88.0434 300.619 77.1346L278.981 64.6242L278.992 61.8242Z" fill="black"/>
<path opacity="0.1" d="M486.439 205.722C475.026 199.114 436.867 177.128 430.831 173.634C424.794 170.139 410.547 167.395 402.741 162.882C407.015 165.831 411.62 168.271 416.461 170.15C424.402 173.197 479.013 204.019 486.439 208.309V205.722Z" fill="black"/>
<path opacity="0.05" d="M278.958 85.1873L336.829 118.72C348.891 125.698 368.939 139.709 385.84 148.859C402.741 158.01 415.173 163.262 415.173 163.262C415.173 163.262 399.011 158.659 385.65 150.942C372.288 143.226 347.962 128.005 333.301 119.515L278.947 87.9985L278.958 85.1873Z" fill="white"/>
<path opacity="0.05" d="M486.439 188.463C475.239 181.978 438.144 160.597 429.319 155.467C420.493 150.338 406.919 140.907 391.899 132.171C380.092 125.304 367.768 119.365 355.04 114.408C348.232 111.606 341.598 108.401 335.171 104.81C343.052 110.069 351.358 114.662 360.002 118.541C374.909 125.261 392.762 134.646 408.61 145.914C424.458 157.181 486.461 191.632 486.461 191.632L486.439 188.463Z" fill="white"/>
<path opacity="0.05" d="M279.003 55.3394C343.84 92.0642 343.549 91.8402 361.603 102.323C378.403 112.034 400.355 125.541 400.355 125.541C400.355 125.541 364.874 106.669 329.392 86.1394L278.992 57.0194L279.003 55.3394Z" fill="white"/>
<path opacity="0.1" d="M486.439 179.402C486.439 179.402 408.901 134.602 387.038 121.99C365.176 109.379 340.838 97.6753 340.838 97.6753C340.838 97.6753 358.994 109.67 385.84 125.25C393.792 129.864 486.439 183.355 486.439 183.355V179.402Z" fill="black"/>
<path opacity="0.1" d="M278.947 92.1426L337.725 126.146C350.045 133.269 381.998 152.735 389.614 157.573C389.614 157.573 358.154 141.042 316.31 116.839L278.936 95.2002L278.947 92.1426Z" fill="black"/>
<path opacity="0.1" d="M278.958 81.2002L328.272 109.76C340.043 116.57 367.472 135.083 379.579 142.061C391.687 149.039 471.296 192.394 486.439 201.152V197.792C477.042 192.36 400.77 142.834 382.536 132.295C364.302 121.755 345.666 116.458 334.298 109.895L278.97 77.885L278.958 81.2002ZM356.429 123.536C356.429 121.845 371.975 128.935 382.648 135.117C392.067 140.571 410.783 153.171 410.783 154.739C410.783 156.307 392.493 146.496 382.648 140.795C372.803 135.095 356.418 125.227 356.429 123.536Z" fill="black"/>
<path opacity="0.05" d="M278.992 68.2305C286.362 72.4865 307.978 84.6945 314.362 89.6001C320.746 94.5057 327.354 102.391 339.674 109.514C339.674 109.514 326.962 104.205 319.648 97.2609C312.334 90.3169 278.936 71.6801 278.936 71.6801L278.992 68.2305Z" fill="white"/>
<path d="M299.544 63.3697L297.931 62.4401L296.318 61.4993L297.528 77.4369L299.544 63.3697Z" fill="#263238"/>
<path opacity="0.2" d="M299.544 63.3696L484.355 172.794L486.438 219.475V171.226L299.544 63.3696Z" fill="white"/>
<path d="M486.438 186.457L475.104 183.097L486.438 192.349V186.457Z" fill="#37474F"/>
<path d="M498.467 212.475L486.438 219.475V171.226L498.467 164.091V212.475Z" fill="#37474F"/>
<path d="M486.439 171.226L498.467 164.091L291.166 44.4417L278.947 51.4752L486.439 171.226Z" fill="#263238"/>
<path d="M486.438 186.458L489.653 187.6L486.438 192.349V186.458Z" fill="#37474F"/>
<path d="M489.653 187.6L486.438 189.459L475.104 183.097L486.438 192.349L489.653 187.6Z" fill="#263238"/>
<path d="M296.318 61.4993L297.931 62.4401L297.528 77.4369L296.318 61.4993Z" fill="#37474F"/>
<path d="M283.114 155.445L490.605 275.195V323.445L303.711 215.589L301.695 199.192L300.485 213.718L283.114 203.694V155.445Z" fill="#455A64"/>
<path opacity="0.05" d="M490.56 283.226C479.696 276.965 434 250.074 428.736 246.512C413.437 236.163 400.243 226.688 379.77 214.715C379.77 214.715 389.267 218.893 409.741 231.974C419.35 238.123 449.702 256.446 454.317 259.482C458.931 262.517 490.56 280.829 490.56 280.829V283.226Z" fill="white"/>
<path opacity="0.1" d="M283.158 193.391L299.667 202.911C315.627 212.106 326.357 217.84 333.267 219.487C340.178 221.133 353.618 228.559 359.643 232.255C353.235 227.472 346.452 223.213 339.36 219.52C326.088 212.419 323.68 213.92 304.819 203.045L283.181 190.568L283.158 193.391Z" fill="black"/>
<path opacity="0.1" d="M490.56 288.96C479.136 282.386 462.56 272.799 456.49 269.316C450.419 265.832 414.669 239.748 406.862 235.245C411.749 237.574 416.353 240.457 420.582 243.836C428.523 249.94 483.123 282.095 490.56 286.396V288.96Z" fill="black"/>
<path opacity="0.05" d="M283.125 169.994L340.995 203.347C353.058 210.291 373.105 219.442 389.995 229.79C406.885 240.139 419.339 249.267 419.339 249.267C419.339 249.267 403.2 235.2 389.76 227.506C376.32 219.811 352.083 206.942 337.411 198.486L283.069 167.126L283.125 169.994Z" fill="white"/>
<path opacity="0.05" d="M490.56 306.208L454.933 285.679C446.062 280.56 411.018 262.047 395.976 253.378C383.172 245.928 370.867 237.652 359.139 228.603C352.783 223.816 346.181 219.364 339.36 215.264C339.36 215.264 349.283 219.744 364.19 230.205C379.098 240.666 396.95 251.922 412.798 258.955C428.646 265.989 490.56 303.05 490.56 303.05V306.208Z" fill="white"/>
<path opacity="0.05" d="M283.17 199.898C283.17 199.898 348.981 238.616 365.758 248.282C382.536 257.948 404.521 269.831 404.521 269.831C404.521 269.831 369.04 247.722 333.547 227.271L283.147 198.229L283.17 199.898Z" fill="white"/>
<path opacity="0.1" d="M490.56 315.269L391.16 257.992C369.354 245.403 344.96 228.962 344.96 228.962C344.96 228.962 363.115 237.922 389.962 253.355C397.959 257.925 490.56 311.36 490.56 311.36V315.302" fill="black"/>
<path opacity="0.1" d="M283.114 163.027L341.891 196.907C354.211 204.008 386.165 221.424 393.781 225.389C393.781 225.389 362.32 205.587 320.477 181.485L283.103 159.947L283.114 163.027Z" fill="black"/>
<path opacity="0.1" d="M283.136 177.397L338.464 209.283C349.821 215.824 368.48 232.064 386.702 242.57C404.925 253.075 481.208 291.547 490.605 296.957V293.597C475.462 284.872 395.797 236.331 383.746 229.387C371.694 222.443 344.21 209.227 332.427 202.44L283.147 174.026L283.136 177.397ZM386.814 234.08C396.659 239.758 414.949 251.059 414.949 252.627C414.949 254.195 396.234 245.19 386.814 239.77C376.13 233.61 360.595 222.757 360.584 221.066C360.573 219.374 376.958 228.48 386.814 234.08Z" fill="black"/>
<path opacity="0.05" d="M283.159 187.04C290.528 191.285 312.144 204.042 318.528 206.506C324.912 208.97 331.52 208.746 343.84 215.835C343.84 215.835 331.128 206.461 323.815 204.949C316.501 203.437 283.103 183.534 283.103 183.534L283.159 187.04Z" fill="white"/>
<path d="M303.71 215.589L301.538 210.594L300.485 213.719L301.694 199.192L303.71 215.589Z" fill="#263238"/>
<path opacity="0.2" d="M303.71 167.339L488.51 276.763L490.605 323.445V275.195L303.71 167.339Z" fill="white"/>
<path d="M490.605 308.213L479.271 298.491L490.605 302.322V308.213Z" fill="#37474F"/>
<path d="M502.634 268.273L490.605 275.195V323.445L502.634 316.512V268.273Z" fill="#37474F"/>
<path d="M490.605 308.213L499.419 299.454L490.605 302.322V308.213Z" fill="#37474F"/>
<path d="M499.42 299.454L490.605 305.211L479.271 298.491L490.605 302.322L499.42 299.454Z" fill="#263238"/>
<path d="M300.485 213.719L301.538 210.594L301.694 199.192L300.485 213.719Z" fill="#37474F"/>
<path d="M380.8 133.056C383.97 134.878 386.791 137.248 389.133 140.056C391.451 142.857 393.393 145.948 394.912 149.251C396.433 152.639 397.561 156.19 398.272 159.835C399.022 163.477 399.468 167.174 399.605 170.89C399.687 173.787 399.728 176.774 399.728 179.85C399.728 182.926 399.687 185.819 399.605 188.53C399.516 191.743 399.069 194.936 398.272 198.05C397.737 200.511 396.581 202.794 394.912 204.68C393.387 206.242 391.315 207.149 389.133 207.211C386.803 207.323 384.026 206.446 380.8 204.579C377.628 202.765 374.806 200.398 372.467 197.591C370.147 194.787 368.204 191.692 366.688 188.384C365.167 185 364.039 181.453 363.328 177.811C362.579 174.17 362.134 170.472 361.995 166.757C361.913 163.994 361.872 161.052 361.872 157.931C361.872 154.81 361.913 151.853 361.995 149.061C362.085 145.844 362.532 142.648 363.328 139.53C363.863 137.072 365.02 134.793 366.688 132.911C368.21 131.344 370.284 130.435 372.467 130.379C374.797 130.305 377.574 131.197 380.8 133.056ZM387.71 181.216C387.875 175.683 387.875 170.113 387.71 164.506C387.631 162.882 387.47 161.264 387.229 159.656C387.008 158.194 386.633 156.76 386.109 155.378C385.606 154.07 384.907 152.847 384.037 151.749C383.147 150.62 382.048 149.673 380.8 148.96C379.849 148.316 378.723 147.98 377.574 147.997C377.173 147.999 376.778 148.092 376.419 148.271C376.059 148.45 375.746 148.708 375.502 149.027C374.913 149.98 374.51 151.037 374.315 152.141C374.043 153.581 373.901 155.043 373.89 156.509C373.673 161.885 373.673 167.451 373.89 173.208C373.924 174.821 374.067 176.43 374.315 178.024C374.521 179.496 374.897 180.939 375.435 182.325C375.958 183.637 376.667 184.866 377.541 185.976C378.431 187.092 379.526 188.027 380.766 188.731C381.713 189.386 382.841 189.727 383.992 189.706C384.41 189.661 384.814 189.528 385.177 189.315C385.54 189.103 385.854 188.816 386.098 188.474C386.685 187.583 387.067 186.573 387.218 185.517C387.494 184.091 387.659 182.645 387.71 181.194V181.216Z" fill="#263238"/>
<path d="M394.912 204.725C393.39 206.298 391.311 207.211 389.122 207.267C386.803 207.379 384.037 206.506 380.8 204.647C377.631 202.828 374.813 200.457 372.479 197.647C371.385 196.33 370.375 194.946 369.455 193.503L373.397 191.263C374.203 192.45 375.055 193.592 375.973 194.701C378.308 197.512 381.126 199.882 384.295 201.701C387.52 203.56 390.302 204.434 392.639 204.322C393.744 204.273 394.834 204.042 395.864 203.639C395.572 204.022 395.254 204.385 394.912 204.725Z" fill="#37474F"/>
<path d="M388.438 150.08L384.485 152.399C384.339 152.175 384.194 151.939 384.037 151.727C383.141 150.61 382.043 149.672 380.8 148.96C379.849 148.316 378.723 147.98 377.574 147.997C377.173 147.998 376.777 148.091 376.418 148.27C376.059 148.449 375.745 148.708 375.502 149.027C375.144 149.554 375.166 149.509 375.502 149.027C375.697 148.745 375.94 148.499 376.219 148.299L379.68 145.6C380.087 145.275 380.583 145.079 381.102 145.04C382.252 145.014 383.381 145.351 384.328 146.003C385.559 146.699 386.643 147.627 387.52 148.736C387.857 149.163 388.163 149.612 388.438 150.08Z" fill="#37474F"/>
<path d="M398.328 159.623C397.618 155.981 396.491 152.433 394.968 149.05C393.452 145.742 391.509 142.647 389.189 139.844C386.847 137.035 384.026 134.665 380.856 132.843C377.63 130.984 374.853 130.111 372.523 130.223C371.48 130.271 370.454 130.499 369.488 130.895C368.222 132.599 367.315 134.542 366.822 136.607C366.03 139.721 365.586 142.914 365.501 146.127C365.411 148.927 365.366 151.895 365.366 155.008C365.366 158.122 365.366 161.056 365.501 163.823C365.634 167.538 366.076 171.235 366.822 174.877C367.534 178.522 368.661 182.073 370.182 185.461C371.698 188.768 373.645 191.86 375.973 194.656C378.304 197.47 381.123 199.841 384.294 201.656C387.531 203.527 390.297 204.389 392.627 204.277C393.735 204.228 394.828 204.001 395.864 203.605C397.078 201.862 397.942 199.899 398.406 197.826C399.17 194.731 399.59 191.561 399.661 188.373C399.743 185.708 399.784 182.818 399.784 179.704C399.784 176.58 399.784 173.578 399.661 170.677C399.522 166.962 399.076 163.264 398.328 159.623ZM391.205 178.204C391.18 179.657 391.041 181.106 390.79 182.538C390.645 183.596 390.262 184.606 389.67 185.495C389.461 185.776 389.207 186.022 388.92 186.223C388.92 186.223 385.694 188.81 385.414 189.012C385.011 189.277 384.55 189.442 384.07 189.493C382.919 189.515 381.791 189.174 380.845 188.519C379.601 187.818 378.506 186.882 377.619 185.764C376.746 184.654 376.036 183.424 375.513 182.112C374.975 180.727 374.599 179.284 374.393 177.812C374.145 176.221 374.003 174.616 373.968 173.007C373.751 167.242 373.751 161.672 373.968 156.296C373.992 154.849 374.141 153.406 374.416 151.984C374.59 150.934 374.971 149.93 375.536 149.028C375.734 148.748 375.976 148.502 376.253 148.3C376.645 148.008 379.433 145.757 379.68 145.578C380.092 145.26 380.584 145.062 381.102 145.007C382.252 144.993 383.378 145.333 384.328 145.981C385.556 146.69 386.639 147.625 387.52 148.736C388.378 149.84 389.072 151.062 389.581 152.365C390.109 153.75 390.484 155.188 390.701 156.655C390.942 158.262 391.103 159.881 391.182 161.504C391.376 167.104 391.384 172.671 391.205 178.204Z" fill="#5EEAD4"/>
<path d="M339.024 179.525C338.471 179.16 338.042 178.637 337.792 178.024C337.45 177.327 337.274 176.56 337.277 175.784V165.648L316.96 153.944C316.405 153.582 315.975 153.058 315.728 152.443C315.386 151.746 315.209 150.98 315.213 150.203V139.664C315.113 138.343 315.405 137.022 316.053 135.867L335.362 109.536C335.606 109.141 335.983 108.847 336.426 108.707C336.9 108.706 337.363 108.855 337.747 109.133L347.502 114.733C348.052 115.101 348.48 115.623 348.734 116.234C349.069 116.933 349.245 117.698 349.25 118.474V156.643L354.794 159.858C355.349 160.219 355.779 160.743 356.026 161.358C356.368 162.055 356.544 162.822 356.541 163.598V174.138C356.568 174.424 356.536 174.713 356.448 174.986C356.359 175.26 356.216 175.512 356.026 175.728C355.866 175.889 355.653 175.987 355.426 176.003C355.2 176.02 354.975 175.954 354.794 175.818L349.25 172.614V182.75C349.274 183.036 349.241 183.325 349.153 183.598C349.064 183.871 348.922 184.123 348.734 184.341C348.574 184.502 348.362 184.6 348.135 184.616C347.909 184.633 347.684 184.567 347.502 184.43L339.024 179.525ZM337.602 149.968V131.678L328.16 144.48L337.602 149.968Z" fill="#263238"/>
<path d="M356.003 175.706C356.193 175.49 356.337 175.237 356.426 174.964C356.514 174.69 356.546 174.402 356.519 174.115V171.797L352.722 169.557L349.227 172.547L354.771 175.75C354.948 175.893 355.169 175.966 355.396 175.958C355.622 175.95 355.838 175.86 356.003 175.706Z" fill="#37474F"/>
<path d="M349.227 180.41V182.728C349.254 183.015 349.221 183.305 349.13 183.578C349.039 183.852 348.893 184.104 348.701 184.319C348.541 184.48 348.328 184.577 348.102 184.594C347.875 184.61 347.65 184.544 347.469 184.408L339.024 179.525C338.472 179.16 338.043 178.637 337.792 178.024L337.725 177.845L341.219 174.866C341.236 174.927 341.259 174.987 341.286 175.045C341.54 175.656 341.969 176.178 342.518 176.546L349.227 180.41Z" fill="#37474F"/>
<path d="M340.771 162.714L337.277 165.693L316.96 153.944C316.414 153.578 315.992 153.054 315.75 152.443C315.694 152.331 315.672 152.23 315.627 152.118L319.245 149.453C319.488 150.073 319.918 150.602 320.477 150.965L340.771 162.714Z" fill="#37474F"/>
<path d="M354.771 159.679L349.227 156.475V118.295C349.225 117.519 349.049 116.753 348.712 116.055C348.462 115.442 348.032 114.919 347.48 114.554L337.725 108.954C337.579 108.869 337.425 108.798 337.266 108.741L319.525 132.944C318.879 134.096 318.587 135.413 318.685 136.73V147.269C318.686 148.046 318.866 148.813 319.211 149.509C319.454 150.123 319.88 150.647 320.432 151.01L340.771 162.759V172.895C340.776 173.652 340.952 174.399 341.286 175.079C341.539 175.693 341.967 176.219 342.518 176.591L349.238 180.455V172.615L352.733 169.624L356.53 171.864V163.442C356.53 162.666 356.354 161.9 356.014 161.202C355.769 160.577 355.334 160.045 354.771 159.679ZM341.096 146.989L337.602 149.767L328.16 144.323L337.59 131.466L341.085 128.699L341.096 146.989Z" fill="#5EEAD4"/>
<path d="M428.848 231.381C428.293 231.019 427.863 230.495 427.616 229.88C427.282 229.2 427.106 228.454 427.101 227.696V217.549L406.762 205.811C406.206 205.445 405.776 204.917 405.53 204.299C405.196 203.619 405.019 202.873 405.014 202.115V191.576C404.916 190.259 405.209 188.942 405.854 187.79L425.163 161.459C425.397 161.056 425.779 160.759 426.227 160.63C426.7 160.626 427.163 160.771 427.549 161.045L437.304 166.645C437.853 167.011 438.279 167.534 438.525 168.146C438.867 168.843 439.043 169.609 439.04 170.386V208.544L444.64 211.747C445.195 212.109 445.625 212.633 445.872 213.248C446.212 213.946 446.388 214.712 446.387 215.488V226.027C446.413 226.313 446.381 226.602 446.292 226.875C446.204 227.148 446.061 227.401 445.872 227.618C445.711 227.777 445.497 227.873 445.271 227.887C445.044 227.902 444.82 227.834 444.64 227.696L439.04 224.493V234.573C439.068 234.859 439.037 235.148 438.948 235.422C438.859 235.695 438.715 235.948 438.525 236.163C438.368 236.326 438.157 236.424 437.932 236.441C437.706 236.458 437.483 236.391 437.304 236.253L428.848 231.381ZM427.426 201.835V183.534L417.995 196.392L427.426 201.835Z" fill="#263238"/>
<path d="M445.827 227.573C446.016 227.356 446.159 227.104 446.248 226.83C446.336 226.557 446.369 226.269 446.343 225.982V223.664L442.546 221.424L439.04 224.448L444.64 227.651C444.817 227.777 445.032 227.838 445.248 227.824C445.464 227.809 445.669 227.721 445.827 227.573Z" fill="#37474F"/>
<path d="M439.04 232.277V234.595C439.066 234.881 439.032 235.168 438.942 235.44C438.851 235.711 438.705 235.962 438.514 236.174C438.355 236.338 438.142 236.437 437.915 236.454C437.688 236.47 437.463 236.403 437.282 236.264L428.837 231.392C428.286 231.021 427.857 230.495 427.605 229.88L427.538 229.701L431.032 226.722C431.045 226.785 431.067 226.845 431.099 226.901C431.353 227.511 431.782 228.034 432.331 228.402L439.04 232.277Z" fill="#37474F"/>
<path d="M430.595 214.57L427.101 217.56L406.751 205.8C406.199 205.44 405.776 204.915 405.541 204.3C405.49 204.199 405.449 204.094 405.418 203.986L409.035 201.32C409.281 201.933 409.707 202.456 410.256 202.821L430.595 214.57Z" fill="#37474F"/>
<path d="M444.64 211.534L439.04 208.32V170.15C439.035 169.393 438.859 168.646 438.525 167.966C438.279 167.354 437.853 166.831 437.304 166.466L427.549 160.866C427.4 160.785 427.247 160.714 427.09 160.653L409.349 184.8C408.701 185.955 408.409 187.276 408.509 188.597V199.136C408.518 199.894 408.698 200.641 409.035 201.32C409.278 201.934 409.704 202.458 410.256 202.821L430.595 214.57V224.65C430.592 225.426 430.768 226.193 431.11 226.89C431.36 227.503 431.79 228.026 432.342 228.39L439.062 232.254V224.414L442.568 221.435L446.365 223.675V215.242C446.36 214.484 446.184 213.737 445.85 213.058C445.605 212.442 445.185 211.912 444.64 211.534ZM430.965 198.845L427.426 201.6L417.995 196.157L427.426 183.299L430.92 180.533L430.965 198.845Z" fill="#5EEAD4"/>
<path d="M321.306 199.237C321.411 199.308 321.493 199.41 321.541 199.528C321.606 199.657 321.64 199.799 321.641 199.943V201.97C321.646 202.026 321.64 202.083 321.623 202.137C321.605 202.191 321.577 202.24 321.541 202.283C321.508 202.312 321.466 202.327 321.423 202.327C321.38 202.327 321.338 202.312 321.306 202.283L315.414 198.923C315.311 198.849 315.23 198.749 315.179 198.632C315.118 198.499 315.087 198.353 315.089 198.207V185.887C315.083 185.831 315.088 185.775 315.103 185.721C315.118 185.667 315.144 185.617 315.179 185.573C315.212 185.545 315.253 185.529 315.297 185.529C315.34 185.529 315.382 185.545 315.414 185.573L321.216 188.933C321.319 189.007 321.4 189.108 321.451 189.224C321.508 189.359 321.539 189.503 321.541 189.65V191.677C321.547 191.785 321.516 191.892 321.451 191.979C321.418 192.006 321.376 192.02 321.333 192.02C321.291 192.02 321.249 192.006 321.216 191.979L317.385 189.739V191.811L320.936 193.861C321.042 193.932 321.124 194.034 321.171 194.152C321.236 194.281 321.27 194.423 321.272 194.567V196.605C321.276 196.66 321.269 196.714 321.252 196.766C321.234 196.818 321.207 196.866 321.171 196.907C321.14 196.938 321.097 196.955 321.053 196.955C321.01 196.955 320.967 196.938 320.936 196.907L317.385 194.88V197.031L321.306 199.237Z" fill="#FAFAFA"/>
<path d="M327.432 195.888C327.544 195.955 327.631 196.058 327.678 196.179C327.734 196.31 327.765 196.451 327.768 196.594V198.531C327.775 198.639 327.743 198.747 327.678 198.834C327.644 198.863 327.6 198.879 327.555 198.879C327.51 198.879 327.466 198.863 327.432 198.834L326.312 198.184C325.55 197.747 325.192 198.117 325.192 199.304V204.019C325.196 204.074 325.189 204.129 325.172 204.18C325.155 204.232 325.127 204.28 325.091 204.322C325.035 204.389 324.957 204.389 324.856 204.322L323.299 203.426C323.19 203.358 323.108 203.255 323.064 203.134C322.999 203.002 322.965 202.856 322.963 202.709V193.749C322.959 193.694 322.966 193.639 322.983 193.588C323.001 193.536 323.028 193.488 323.064 193.446C323.12 193.379 323.198 193.379 323.299 193.446L324.733 194.275C324.839 194.347 324.921 194.448 324.968 194.566C325.033 194.695 325.067 194.837 325.069 194.981V195.429C325.26 195.255 325.505 195.152 325.763 195.138C326.105 195.133 326.441 195.23 326.726 195.418L327.432 195.888Z" fill="#FAFAFA"/>
<path d="M333.144 199.181C333.252 199.25 333.335 199.352 333.379 199.472C333.444 199.601 333.478 199.743 333.48 199.887V201.824C333.484 201.879 333.477 201.934 333.46 201.986C333.442 202.037 333.415 202.085 333.379 202.127C333.348 202.157 333.305 202.175 333.262 202.175C333.218 202.175 333.175 202.157 333.144 202.127L332.024 201.477C331.262 201.04 330.904 201.41 330.904 202.597V207.312C330.908 207.367 330.901 207.422 330.884 207.474C330.866 207.525 330.839 207.573 330.803 207.615C330.772 207.645 330.73 207.663 330.686 207.663C330.642 207.663 330.599 207.645 330.568 207.615L329 206.719C328.897 206.645 328.815 206.544 328.765 206.427C328.7 206.295 328.665 206.149 328.664 206.002V197.042C328.66 196.987 328.667 196.932 328.684 196.881C328.701 196.829 328.729 196.781 328.765 196.739C328.796 196.709 328.838 196.691 328.882 196.691C328.926 196.691 328.969 196.709 329 196.739L330.445 197.568C330.55 197.64 330.632 197.741 330.68 197.859C330.745 197.988 330.779 198.13 330.781 198.274V198.722C330.966 198.545 331.208 198.441 331.464 198.431C331.806 198.426 332.141 198.523 332.427 198.711L333.144 199.181Z" fill="#FAFAFA"/>
<path d="M340.76 207.827C340.76 208.017 340.76 208.264 340.76 208.566C340.76 208.869 340.76 209.104 340.76 209.294C340.753 209.829 340.658 210.358 340.48 210.862C340.35 211.255 340.113 211.604 339.797 211.87C339.504 212.108 339.132 212.228 338.755 212.206C338.266 212.184 337.791 212.033 337.378 211.769C336.861 211.473 336.396 211.095 336 210.649C335.588 210.177 335.238 209.654 334.958 209.093C334.663 208.523 334.434 207.922 334.275 207.301C334.113 206.686 334.019 206.055 333.995 205.419C333.995 205.217 333.995 204.971 333.995 204.669C333.995 204.366 333.995 204.131 333.995 203.941C333.996 203.408 334.083 202.878 334.253 202.373C334.391 201.981 334.631 201.633 334.947 201.365C335.247 201.13 335.619 201.007 336 201.017C336.489 201.04 336.964 201.191 337.378 201.454C337.894 201.751 338.359 202.129 338.755 202.574C339.164 203.055 339.517 203.581 339.808 204.142C340.098 204.718 340.327 205.322 340.491 205.945C340.646 206.562 340.736 207.192 340.76 207.827ZM336.28 206.584C336.293 207.051 336.408 207.51 336.616 207.928C336.792 208.293 337.073 208.597 337.422 208.801C337.54 208.885 337.681 208.931 337.826 208.931C337.97 208.931 338.111 208.885 338.229 208.801C338.347 208.677 338.439 208.529 338.496 208.367C338.554 208.205 338.578 208.032 338.565 207.861C338.577 207.652 338.577 207.442 338.565 207.233C338.577 207.01 338.577 206.785 338.565 206.561C338.55 206.098 338.436 205.643 338.229 205.229C338.049 204.866 337.769 204.563 337.422 204.355C337.086 204.165 336.818 204.142 336.616 204.299C336.497 204.424 336.406 204.572 336.348 204.734C336.29 204.896 336.267 205.068 336.28 205.24C336.268 205.452 336.268 205.666 336.28 205.878C336.251 206.112 336.236 206.348 336.235 206.584H336.28Z" fill="#FAFAFA"/>
<path d="M346.439 206.853C346.542 206.927 346.623 207.028 346.674 207.144C346.739 207.277 346.773 207.422 346.775 207.57V209.496C346.781 209.551 346.775 209.606 346.757 209.658C346.74 209.711 346.711 209.758 346.674 209.799C346.642 209.829 346.6 209.847 346.556 209.847C346.512 209.847 346.47 209.829 346.439 209.799L345.319 209.149C344.557 208.701 344.199 209.071 344.199 210.269V214.973C344.205 215.028 344.199 215.083 344.181 215.135C344.164 215.187 344.135 215.235 344.098 215.275C344.066 215.306 344.024 215.323 343.98 215.323C343.936 215.323 343.894 215.306 343.863 215.275L342.295 214.368C342.189 214.297 342.107 214.195 342.059 214.077C341.995 213.948 341.96 213.807 341.959 213.663V204.703C341.954 204.646 341.96 204.589 341.977 204.536C341.995 204.482 342.023 204.432 342.059 204.389C342.092 204.361 342.134 204.345 342.177 204.345C342.22 204.345 342.262 204.361 342.295 204.389L343.739 205.218C343.843 205.292 343.924 205.392 343.975 205.509C344.04 205.641 344.074 205.787 344.075 205.935V206.371C344.263 206.199 344.504 206.097 344.759 206.08C345.101 206.08 345.437 206.181 345.722 206.371L346.439 206.853Z" fill="#FAFAFA"/>
<path d="M346.931 214.301C346.944 214.148 346.998 214.001 347.088 213.876C347.178 213.775 347.301 213.764 347.469 213.876L348.992 214.749C349.081 214.806 349.151 214.888 349.194 214.984C349.24 215.095 349.266 215.212 349.272 215.331C349.272 215.387 349.272 215.421 349.272 215.455L348.298 218.703C348.262 218.817 348.205 218.923 348.13 219.016C348.051 219.106 347.928 219.106 347.76 219.016L346.831 218.479C346.74 218.426 346.673 218.343 346.64 218.243C346.588 218.139 346.561 218.024 346.562 217.907L346.931 214.301Z" fill="#FAFAFA"/>
<path d="M357.011 223.104C356.781 222.968 356.567 222.807 356.373 222.622C356.2 222.449 356.043 222.262 355.902 222.062C355.774 221.882 355.662 221.691 355.566 221.491C355.477 221.301 355.398 221.144 355.342 220.987V225.12C355.348 225.175 355.343 225.23 355.325 225.282C355.308 225.334 355.279 225.382 355.242 225.422C355.21 225.453 355.168 225.47 355.124 225.47C355.08 225.47 355.038 225.453 355.006 225.422L353.438 224.515C353.33 224.447 353.247 224.344 353.203 224.224C353.138 224.095 353.104 223.954 353.102 223.81V211.221C353.098 211.166 353.105 211.111 353.123 211.059C353.14 211.008 353.167 210.96 353.203 210.918C353.237 210.892 353.278 210.878 353.321 210.878C353.363 210.878 353.405 210.892 353.438 210.918L354.95 211.792C355.056 211.863 355.138 211.965 355.186 212.083C355.251 212.212 355.285 212.354 355.286 212.498V212.946C355.354 212.856 355.443 212.766 355.522 212.677C355.612 212.59 355.724 212.528 355.846 212.498C356.001 212.458 356.163 212.458 356.317 212.498C356.563 212.555 356.798 212.653 357.011 212.789C357.408 213.02 357.763 213.316 358.064 213.662C358.418 214.05 358.713 214.487 358.938 214.962C359.198 215.514 359.401 216.092 359.542 216.686C359.699 217.374 359.781 218.076 359.789 218.781C359.789 218.971 359.789 219.24 359.789 219.565C359.789 219.89 359.789 220.147 359.789 220.326C359.794 220.936 359.711 221.543 359.542 222.13C359.433 222.516 359.224 222.867 358.938 223.149C358.821 223.257 358.683 223.341 358.533 223.394C358.383 223.448 358.223 223.471 358.064 223.462C357.689 223.431 357.328 223.307 357.011 223.104ZM357.571 218.792C357.596 218.419 357.596 218.045 357.571 217.672C357.547 217.215 357.448 216.765 357.28 216.339C357.131 215.925 356.837 215.578 356.451 215.365C356.311 215.274 356.147 215.227 355.981 215.23C355.854 215.24 355.734 215.296 355.645 215.387C355.56 215.5 355.492 215.624 355.443 215.757C355.397 215.922 355.363 216.09 355.342 216.261C355.342 216.44 355.342 216.664 355.342 216.91C355.342 217.157 355.342 217.392 355.342 217.594C355.365 217.801 355.399 218.006 355.443 218.21C355.497 218.415 355.564 218.617 355.645 218.814C355.733 219.011 355.846 219.196 355.981 219.363C356.11 219.527 356.27 219.664 356.451 219.766C356.843 219.99 357.123 219.99 357.28 219.766C357.463 219.474 357.563 219.137 357.571 218.792Z" fill="#FAFAFA"/>
<path d="M360.561 222.13C360.523 221.813 360.56 221.492 360.669 221.192C360.778 220.893 360.956 220.623 361.189 220.405C361.509 220.252 361.859 220.172 362.213 220.172C362.568 220.172 362.918 220.252 363.238 220.405L364.694 220.864C364.698 220.572 364.641 220.282 364.526 220.013C364.417 219.746 364.22 219.524 363.966 219.386C363.838 219.298 363.685 219.255 363.529 219.263C363.447 219.28 363.367 219.31 363.294 219.352C363.266 219.378 363.232 219.397 363.195 219.409C363.158 219.42 363.12 219.424 363.081 219.419C362.998 219.399 362.919 219.365 362.846 219.319L361.267 218.411C361.181 218.352 361.111 218.271 361.065 218.176C361.01 218.069 360.987 217.949 360.998 217.829C361.017 217.555 361.101 217.29 361.245 217.056C361.397 216.827 361.61 216.644 361.861 216.53C362.154 216.407 362.474 216.361 362.79 216.395C363.208 216.446 363.609 216.587 363.966 216.81C364.46 217.088 364.906 217.443 365.288 217.863C365.656 218.257 365.965 218.702 366.206 219.184C366.45 219.664 366.634 220.172 366.755 220.696C366.867 221.238 366.924 221.789 366.923 222.343V228.144C366.927 228.199 366.92 228.254 366.903 228.305C366.886 228.357 366.858 228.405 366.822 228.447C366.791 228.477 366.749 228.495 366.705 228.495C366.661 228.495 366.618 228.477 366.587 228.447L365.019 227.551C364.916 227.476 364.835 227.376 364.784 227.259C364.722 227.126 364.692 226.981 364.694 226.834V226.24C364.61 226.366 364.501 226.474 364.374 226.557C364.247 226.64 364.104 226.696 363.955 226.722C363.555 226.737 363.161 226.619 362.835 226.386C362.477 226.183 362.155 225.922 361.883 225.613C361.605 225.303 361.371 224.957 361.189 224.583C360.997 224.197 360.851 223.792 360.752 223.373C360.647 222.966 360.583 222.55 360.561 222.13ZM363.395 224.202C363.549 224.301 363.727 224.356 363.91 224.359C364.059 224.355 364.201 224.299 364.313 224.202C364.443 224.087 364.54 223.94 364.593 223.776C364.665 223.563 364.699 223.34 364.694 223.115L363.574 222.723C363.487 222.687 363.394 222.668 363.3 222.668C363.206 222.668 363.112 222.687 363.025 222.723C362.953 222.777 362.896 222.848 362.861 222.931C362.825 223.014 362.812 223.105 362.824 223.194C362.818 223.406 362.872 223.616 362.981 223.799C363.085 223.964 363.227 224.102 363.395 224.202Z" fill="#FAFAFA"/>
<path d="M371.37 232.534C371.49 232.62 371.627 232.679 371.772 232.706C371.917 232.733 372.067 232.728 372.21 232.691C372.445 232.601 372.568 232.333 372.568 231.885V230.552C372.495 230.649 372.412 230.739 372.322 230.821C372.234 230.912 372.121 230.975 371.997 231C371.842 231.039 371.681 231.039 371.526 231C371.285 230.94 371.054 230.842 370.843 230.709C370.446 230.477 370.088 230.187 369.779 229.846C369.435 229.454 369.145 229.017 368.917 228.547C368.656 228.006 368.454 227.439 368.312 226.856C368.153 226.188 368.066 225.504 368.054 224.817C368.054 224.627 368.054 224.392 368.054 224.134C368.054 223.877 368.054 223.653 368.054 223.462C368.055 222.867 368.141 222.274 368.312 221.704C368.424 221.328 368.632 220.988 368.917 220.718C369.154 220.51 369.463 220.401 369.779 220.416C370.155 220.45 370.519 220.569 370.843 220.763C371.098 220.911 371.334 221.088 371.549 221.289C371.739 221.467 371.911 221.662 372.064 221.872C372.192 222.055 372.308 222.245 372.411 222.443C372.501 222.633 372.568 222.801 372.624 222.947V222.51C372.619 222.454 372.626 222.397 372.643 222.343C372.66 222.289 372.688 222.24 372.725 222.197C372.76 222.169 372.803 222.155 372.848 222.155C372.893 222.155 372.936 222.169 372.971 222.197L374.405 223.025C374.511 223.097 374.592 223.198 374.64 223.317C374.705 223.445 374.739 223.587 374.741 223.731V233.049C374.765 233.639 374.677 234.228 374.483 234.785C374.357 235.171 374.114 235.507 373.789 235.749C373.453 235.951 373.053 236.019 372.669 235.939C372.186 235.853 371.722 235.678 371.302 235.424C370.708 235.086 370.174 234.65 369.723 234.136C369.34 233.694 369.016 233.205 368.76 232.68C368.544 232.238 368.382 231.772 368.278 231.291C368.19 230.924 368.137 230.549 368.122 230.171C368.111 230.115 368.115 230.056 368.132 230.002C368.15 229.947 368.181 229.897 368.222 229.857C368.255 229.829 368.297 229.813 368.34 229.813C368.383 229.813 368.425 229.829 368.458 229.857L370.07 230.787C370.274 230.93 370.415 231.147 370.462 231.392C370.522 231.602 370.612 231.802 370.731 231.985C370.886 232.226 371.108 232.417 371.37 232.534ZM370.25 224.929C370.24 225.079 370.24 225.228 370.25 225.377C370.24 225.542 370.24 225.706 370.25 225.87C370.268 226.311 370.37 226.745 370.552 227.147C370.714 227.533 371.002 227.853 371.37 228.054C371.706 228.256 371.963 228.256 372.142 228.054C372.34 227.835 372.455 227.554 372.467 227.259C372.512 226.857 372.512 226.451 372.467 226.049C372.429 225.661 372.322 225.282 372.154 224.929C371.989 224.564 371.715 224.259 371.37 224.056C371.011 223.843 370.742 223.832 370.563 224.056C370.372 224.306 370.273 224.615 370.283 224.929H370.25Z" fill="#FAFAFA"/>
<path d="M378.123 231.213C378.119 231.478 378.153 231.742 378.224 231.997C378.289 232.212 378.379 232.419 378.493 232.613C378.591 232.778 378.712 232.929 378.851 233.061C378.973 233.169 379.104 233.267 379.243 233.352C379.419 233.467 379.618 233.543 379.826 233.576C379.959 233.587 380.091 233.547 380.195 233.464C380.252 233.412 380.321 233.377 380.397 233.363C380.473 233.361 380.548 233.384 380.61 233.43L382.222 234.36C382.316 234.424 382.39 234.512 382.437 234.614C382.484 234.717 382.503 234.83 382.491 234.942C382.477 235.151 382.416 235.354 382.312 235.536C382.173 235.787 381.973 235.999 381.73 236.152C381.429 236.344 381.077 236.437 380.722 236.421C380.195 236.394 379.685 236.228 379.243 235.939C378.705 235.623 378.221 235.222 377.81 234.752C377.379 234.26 377.021 233.71 376.746 233.117C376.458 232.479 376.244 231.81 376.107 231.123C375.957 230.367 375.882 229.598 375.883 228.827C375.875 228.178 375.95 227.531 376.107 226.901C376.21 226.432 376.43 225.997 376.746 225.635C377.026 225.347 377.408 225.178 377.81 225.165C378.32 225.169 378.818 225.321 379.243 225.602C379.845 225.948 380.371 226.413 380.789 226.968C381.213 227.525 381.563 228.135 381.83 228.782C382.097 229.431 382.292 230.107 382.413 230.798C382.531 231.441 382.591 232.094 382.592 232.747V233.285C382.596 233.339 382.589 233.394 382.572 233.446C382.555 233.498 382.527 233.546 382.491 233.587C382.46 233.618 382.418 233.635 382.374 233.635C382.33 233.635 382.287 233.618 382.256 233.587L378.123 231.213ZM379.243 228.189C378.896 227.987 378.627 227.987 378.448 228.189C378.25 228.442 378.136 228.752 378.123 229.074L380.363 230.373C380.323 229.936 380.213 229.509 380.038 229.107C379.876 228.725 379.598 228.404 379.243 228.189Z" fill="#FAFAFA"/>
<path d="M392.986 243.163C392.99 243.218 392.983 243.273 392.966 243.324C392.948 243.376 392.921 243.424 392.885 243.466C392.851 243.492 392.81 243.506 392.767 243.506C392.725 243.506 392.683 243.492 392.65 243.466L391.082 242.558C390.976 242.487 390.894 242.386 390.847 242.267C390.782 242.139 390.747 241.997 390.746 241.853V237.003C390.752 236.502 390.664 236.005 390.488 235.536C390.335 235.128 390.046 234.784 389.671 234.562C389.29 234.349 389.021 234.36 388.853 234.562C388.661 234.903 388.572 235.291 388.595 235.682V240.531C388.599 240.586 388.592 240.641 388.575 240.693C388.558 240.744 388.53 240.792 388.495 240.834C388.463 240.864 388.421 240.882 388.377 240.882C388.333 240.882 388.291 240.864 388.259 240.834L386.691 239.938C386.588 239.863 386.507 239.763 386.456 239.646C386.391 239.514 386.357 239.368 386.355 239.221V230.261C386.351 230.206 386.358 230.151 386.376 230.1C386.393 230.048 386.42 230 386.456 229.958C386.488 229.928 386.53 229.91 386.574 229.91C386.618 229.91 386.66 229.928 386.691 229.958L388.203 230.821C388.309 230.892 388.391 230.994 388.439 231.112C388.503 231.241 388.538 231.382 388.539 231.526V231.974C388.61 231.878 388.692 231.791 388.786 231.717C388.886 231.626 389.011 231.568 389.144 231.549C389.307 231.516 389.474 231.516 389.637 231.549C389.866 231.611 390.084 231.705 390.287 231.829C390.704 232.063 391.082 232.361 391.407 232.714C391.751 233.1 392.038 233.533 392.258 234.002C392.506 234.538 392.69 235.102 392.807 235.682C392.947 236.359 393.014 237.05 393.008 237.742L392.986 243.163Z" fill="#FAFAFA"/>
<path d="M400.848 242.513C400.848 242.715 400.848 242.961 400.848 243.264C400.848 243.566 400.848 243.801 400.848 243.992C400.844 244.522 400.753 245.048 400.579 245.549C400.448 245.944 400.212 246.296 399.896 246.568C399.598 246.804 399.223 246.923 398.843 246.904C398.353 246.876 397.878 246.722 397.466 246.456C396.952 246.159 396.491 245.781 396.099 245.336C395.684 244.863 395.33 244.34 395.047 243.779C394.755 243.204 394.526 242.6 394.363 241.976C394.198 241.362 394.108 240.73 394.095 240.094C394.095 239.904 394.095 239.657 394.095 239.355C394.095 239.053 394.095 238.817 394.095 238.627C394.084 238.093 394.171 237.562 394.352 237.059C394.482 236.666 394.719 236.318 395.035 236.051C395.351 235.798 395.752 235.674 396.155 235.704C396.641 235.728 397.112 235.879 397.522 236.141C398.039 236.437 398.504 236.815 398.899 237.261C399.311 237.74 399.664 238.266 399.952 238.829C400.247 239.402 400.476 240.007 400.635 240.632C400.783 241.248 400.854 241.88 400.848 242.513ZM396.368 241.281C396.391 241.745 396.509 242.199 396.715 242.614C396.891 242.976 397.167 243.279 397.511 243.488C397.847 243.689 398.115 243.701 398.317 243.488C398.436 243.363 398.527 243.215 398.585 243.053C398.643 242.891 398.666 242.719 398.653 242.547C398.666 242.334 398.666 242.121 398.653 241.909C398.665 241.689 398.665 241.468 398.653 241.248C398.64 240.784 398.525 240.329 398.317 239.915C398.141 239.55 397.86 239.246 397.511 239.041C397.396 238.955 397.256 238.908 397.113 238.908C396.97 238.908 396.83 238.955 396.715 239.041C396.597 239.167 396.505 239.315 396.446 239.476C396.386 239.638 396.36 239.81 396.368 239.982C396.368 240.161 396.368 240.374 396.368 240.621C396.368 240.867 396.312 241.08 396.323 241.281H396.368Z" fill="#FAFAFA"/>
<path d="M404.936 246.692C404.93 246.947 404.972 247.202 405.059 247.442C405.14 247.644 405.285 247.814 405.474 247.924L406.47 248.495C406.576 248.566 406.658 248.668 406.706 248.786C406.772 248.918 406.806 249.064 406.806 249.212V251.138C406.812 251.193 406.806 251.248 406.789 251.3C406.772 251.352 406.743 251.4 406.706 251.44C406.674 251.471 406.632 251.488 406.588 251.488C406.544 251.488 406.502 251.471 406.47 251.44L405.283 250.757C404.884 250.524 404.525 250.23 404.219 249.884C403.9 249.516 403.629 249.11 403.413 248.674C403.181 248.199 403.004 247.699 402.886 247.184C402.759 246.63 402.695 246.062 402.696 245.493V242.279L401.778 241.752C401.672 241.681 401.59 241.579 401.542 241.461C401.477 241.333 401.443 241.191 401.442 241.047V239.109C401.435 239.054 401.441 238.999 401.459 238.947C401.476 238.895 401.505 238.847 401.542 238.807C401.574 238.776 401.616 238.759 401.66 238.759C401.704 238.759 401.746 238.776 401.778 238.807L402.696 239.344V236.22C402.691 236.165 402.697 236.11 402.714 236.058C402.732 236.006 402.76 235.958 402.797 235.917C402.83 235.891 402.872 235.876 402.914 235.876C402.957 235.876 402.998 235.891 403.032 235.917L404.6 236.824C404.706 236.896 404.788 236.997 404.835 237.116C404.9 237.244 404.934 237.386 404.936 237.53V240.655L406.336 241.461C406.445 241.531 406.531 241.633 406.582 241.752C406.644 241.886 406.675 242.031 406.672 242.178V244.104C406.678 244.16 406.674 244.216 406.658 244.27C406.643 244.324 406.617 244.374 406.582 244.418C406.547 244.445 406.504 244.46 406.459 244.46C406.415 244.46 406.371 244.445 406.336 244.418L404.936 243.612V246.692Z" fill="#FAFAFA"/>
<path d="M413.28 245.459L414.803 246.344C414.906 246.414 414.987 246.511 415.038 246.624C415.102 246.757 415.136 246.902 415.139 247.05V248.987C415.143 249.042 415.136 249.097 415.119 249.149C415.102 249.201 415.074 249.249 415.038 249.29C415.005 249.316 414.963 249.33 414.921 249.33C414.878 249.33 414.837 249.316 414.803 249.29L413.28 248.405V254.867C413.286 254.922 413.28 254.977 413.263 255.03C413.245 255.082 413.217 255.13 413.179 255.17C413.148 255.201 413.105 255.218 413.061 255.218C413.017 255.218 412.975 255.201 412.944 255.17L411.376 254.263C411.268 254.194 411.185 254.092 411.141 253.971C411.076 253.843 411.041 253.701 411.04 253.557V247.083L410.189 246.591C410.082 246.556 409.988 246.49 409.92 246.4C409.864 246.269 409.833 246.128 409.83 245.986V244.048C409.823 243.94 409.855 243.833 409.92 243.746C409.955 243.719 409.998 243.704 410.043 243.704C410.088 243.704 410.131 243.719 410.166 243.746L411.017 244.25V243.735C411.004 243.242 411.072 242.75 411.219 242.279C411.32 241.95 411.52 241.661 411.79 241.45C412.036 241.272 412.34 241.192 412.641 241.226C413.038 241.26 413.422 241.387 413.761 241.595L414.937 242.279C415.046 242.347 415.129 242.449 415.173 242.57C415.238 242.702 415.272 242.848 415.273 242.995V244.922C415.278 244.978 415.272 245.035 415.255 245.089C415.237 245.143 415.209 245.192 415.173 245.235C415.14 245.264 415.098 245.279 415.055 245.279C415.012 245.279 414.97 245.264 414.937 245.235L413.817 244.586C413.616 244.474 413.47 244.474 413.392 244.586C413.304 244.747 413.265 244.93 413.28 245.112V245.459Z" fill="#FAFAFA"/>
<path d="M422.487 255.013C422.487 255.203 422.487 255.45 422.487 255.752C422.487 256.055 422.487 256.29 422.487 256.48C422.478 257.015 422.384 257.544 422.207 258.048C422.072 258.439 421.837 258.787 421.524 259.056C421.229 259.292 420.859 259.412 420.482 259.392C419.992 259.365 419.517 259.21 419.104 258.944C418.587 258.649 418.122 258.27 417.727 257.824C417.315 257.351 416.965 256.828 416.685 256.267C416.105 255.126 415.777 253.873 415.722 252.594C415.722 252.392 415.722 252.146 415.722 251.843C415.722 251.541 415.722 251.306 415.722 251.115C415.723 250.582 415.81 250.053 415.98 249.547C416.113 249.153 416.353 248.804 416.674 248.539C416.974 248.305 417.346 248.182 417.727 248.192C418.216 248.215 418.691 248.365 419.104 248.629C419.621 248.925 420.086 249.304 420.482 249.749C420.891 250.23 421.244 250.756 421.535 251.317C421.833 251.892 422.069 252.496 422.24 253.12C422.389 253.741 422.471 254.375 422.487 255.013ZM418.007 253.77C418.02 254.237 418.134 254.696 418.343 255.114C418.519 255.479 418.799 255.783 419.149 255.987C419.267 256.071 419.408 256.116 419.552 256.116C419.697 256.116 419.838 256.071 419.956 255.987C420.074 255.863 420.165 255.715 420.223 255.553C420.281 255.391 420.304 255.218 420.292 255.047C420.292 254.867 420.292 254.655 420.292 254.408C420.292 254.162 420.292 253.949 420.292 253.747C420.277 253.284 420.163 252.829 419.956 252.415C419.776 252.052 419.496 251.749 419.149 251.541C418.813 251.351 418.544 251.328 418.343 251.541C418.224 251.666 418.133 251.814 418.075 251.976C418.017 252.138 417.994 252.31 418.007 252.482C417.994 252.694 417.994 252.908 418.007 253.12C417.98 253.336 417.965 253.553 417.962 253.77H418.007Z" fill="#FAFAFA"/>
<path d="M423.595 251.922C423.589 251.866 423.594 251.81 423.609 251.756C423.624 251.702 423.65 251.652 423.685 251.608C423.718 251.58 423.759 251.564 423.803 251.564C423.846 251.564 423.888 251.58 423.92 251.608L425.488 252.504C425.591 252.578 425.673 252.679 425.723 252.795C425.788 252.928 425.823 253.073 425.824 253.221V258.059C425.816 258.555 425.895 259.048 426.059 259.515C426.2 259.916 426.478 260.253 426.843 260.467C427.213 260.68 427.471 260.658 427.627 260.411C427.803 260.041 427.88 259.633 427.851 259.224V254.386C427.847 254.331 427.854 254.276 427.872 254.225C427.889 254.173 427.916 254.125 427.952 254.083C427.986 254.057 428.027 254.043 428.07 254.043C428.112 254.043 428.154 254.057 428.187 254.083L429.755 254.991C429.861 255.062 429.943 255.163 429.991 255.282C430.057 255.414 430.091 255.56 430.091 255.707V264.667C430.095 264.722 430.088 264.777 430.071 264.829C430.054 264.881 430.026 264.929 429.991 264.97C429.959 265.001 429.917 265.018 429.873 265.018C429.829 265.018 429.787 265.001 429.755 264.97L428.311 264.141C428.205 264.07 428.123 263.968 428.075 263.85C428.01 263.721 427.976 263.579 427.975 263.435V262.987C427.905 263.091 427.822 263.185 427.728 263.267C427.626 263.346 427.507 263.4 427.381 263.424C427.218 263.457 427.051 263.457 426.888 263.424C426.654 263.372 426.431 263.281 426.227 263.155C425.384 262.643 424.713 261.891 424.301 260.994C423.792 259.818 423.551 258.544 423.595 257.264V251.922Z" fill="#FAFAFA"/>
<path d="M438.155 269.237C438.161 269.292 438.155 269.347 438.138 269.399C438.12 269.451 438.092 269.499 438.054 269.539C438.023 269.57 437.981 269.587 437.937 269.587C437.893 269.587 437.85 269.57 437.819 269.539L436.251 268.632C436.143 268.564 436.06 268.461 436.016 268.341C435.951 268.212 435.916 268.071 435.915 267.927V263.088C435.921 262.584 435.834 262.082 435.657 261.61C435.5 261.206 435.212 260.867 434.84 260.647C434.459 260.423 434.19 260.434 434.022 260.647C433.822 261.004 433.732 261.414 433.765 261.823V266.661C433.771 266.716 433.765 266.771 433.747 266.823C433.73 266.875 433.701 266.923 433.664 266.963C433.632 266.994 433.59 267.011 433.546 267.011C433.502 267.011 433.46 266.994 433.429 266.963L431.861 266.056C431.755 265.985 431.673 265.883 431.625 265.765C431.56 265.636 431.526 265.495 431.525 265.351V256.391C431.52 256.334 431.526 256.277 431.543 256.224C431.561 256.17 431.589 256.12 431.625 256.077C431.658 256.049 431.7 256.033 431.743 256.033C431.786 256.033 431.828 256.049 431.861 256.077L433.373 256.939C433.476 257.013 433.557 257.114 433.608 257.231C433.673 257.363 433.707 257.509 433.709 257.656V258.093C433.776 257.994 433.86 257.908 433.955 257.835C434.06 257.753 434.183 257.696 434.313 257.667C434.476 257.635 434.643 257.635 434.806 257.667C435.036 257.72 435.256 257.811 435.456 257.936C435.873 258.17 436.251 258.469 436.576 258.821C436.918 259.209 437.204 259.642 437.427 260.109C437.675 260.646 437.859 261.209 437.976 261.789C438.115 262.467 438.183 263.158 438.177 263.85L438.155 269.237Z" fill="#FAFAFA"/>
<path d="M442.064 261.879C442.301 262.004 442.517 262.167 442.702 262.36C442.875 262.533 443.032 262.721 443.173 262.92C443.299 263.098 443.411 263.286 443.509 263.48C443.599 263.671 443.677 263.839 443.733 263.984V259.908C443.729 259.853 443.736 259.798 443.753 259.746C443.77 259.694 443.798 259.646 443.834 259.605C443.867 259.579 443.909 259.564 443.951 259.564C443.994 259.564 444.035 259.579 444.069 259.605L445.637 260.512C445.743 260.584 445.825 260.685 445.872 260.804C445.938 260.936 445.973 261.081 445.973 261.229V273.773C445.979 273.828 445.973 273.883 445.956 273.935C445.938 273.988 445.91 274.035 445.872 274.076C445.841 274.106 445.798 274.124 445.755 274.124C445.711 274.124 445.668 274.106 445.637 274.076L444.125 273.202C444.02 273.135 443.937 273.037 443.89 272.922C443.826 272.789 443.792 272.644 443.789 272.496V272.06C443.717 272.155 443.638 272.244 443.554 272.328C443.46 272.412 443.349 272.473 443.229 272.508C443.075 272.546 442.913 272.546 442.759 272.508C442.513 272.448 442.279 272.35 442.064 272.216C441.673 271.982 441.318 271.692 441.011 271.354C440.66 270.96 440.366 270.519 440.138 270.044C439.876 269.496 439.673 268.921 439.533 268.33C439.378 267.642 439.295 266.94 439.287 266.236C439.287 266.034 439.287 265.776 439.287 265.452C439.287 265.127 439.287 264.869 439.287 264.679C439.283 264.069 439.366 263.462 439.533 262.876C439.646 262.49 439.854 262.14 440.138 261.856C440.255 261.748 440.392 261.664 440.543 261.611C440.693 261.557 440.852 261.534 441.011 261.543C441.385 261.565 441.747 261.681 442.064 261.879ZM441.504 266.18C441.48 266.552 441.48 266.927 441.504 267.3C441.533 267.756 441.631 268.206 441.795 268.632C441.948 269.044 442.242 269.389 442.624 269.607C442.762 269.703 442.926 269.754 443.095 269.752C443.223 269.739 443.342 269.679 443.431 269.584C443.524 269.477 443.592 269.351 443.632 269.215C443.68 269.054 443.713 268.889 443.733 268.722C443.733 268.532 443.733 268.319 443.733 268.061C443.733 267.804 443.733 267.58 443.733 267.378C443.733 267.176 443.677 266.975 443.632 266.762C443.585 266.554 443.518 266.351 443.431 266.157C443.343 265.964 443.23 265.783 443.095 265.62C442.965 265.453 442.806 265.312 442.624 265.205C442.232 264.981 441.963 264.992 441.795 265.205C441.615 265.499 441.515 265.835 441.504 266.18Z" fill="#FAFAFA"/>
</svg>
