<svg width="87" height="14" viewBox="0 0 87 14" fill="none" xmlns="http://www.w3.org/2000/svg">
<path d="M0.188 13V3.982H2.312L2.51 5.188C2.798 4.756 3.176 4.414 3.644 4.162C4.124 3.898 4.676 3.766 5.3 3.766C5.756 3.766 6.164 3.826 6.524 3.946C6.896 4.066 7.22 4.24 7.496 4.468C7.772 4.696 8.006 4.984 8.198 5.332C8.534 4.852 8.972 4.474 9.512 4.198C10.052 3.91 10.646 3.766 11.294 3.766C12.074 3.766 12.728 3.928 13.256 4.252C13.796 4.564 14.204 5.026 14.48 5.638C14.756 6.238 14.894 6.976 14.894 7.852V13H12.482V8.086C12.482 7.354 12.338 6.796 12.05 6.412C11.762 6.016 11.324 5.818 10.736 5.818C10.34 5.818 9.992 5.92 9.692 6.124C9.392 6.316 9.158 6.592 8.99 6.952C8.834 7.312 8.756 7.75 8.756 8.266V13H6.326V8.086C6.326 7.354 6.182 6.796 5.894 6.412C5.606 6.016 5.156 5.818 4.544 5.818C4.172 5.818 3.836 5.92 3.536 6.124C3.248 6.316 3.02 6.592 2.852 6.952C2.696 7.312 2.618 7.75 2.618 8.266V13H0.188ZM21.4349 13.216C20.5709 13.216 19.7909 13.018 19.0949 12.622C18.4109 12.214 17.8649 11.656 17.4569 10.948C17.0609 10.24 16.8629 9.424 16.8629 8.5C16.8629 7.564 17.0609 6.742 17.4569 6.034C17.8649 5.326 18.4169 4.774 19.1129 4.378C19.8089 3.97 20.5889 3.766 21.4529 3.766C22.3169 3.766 23.0969 3.97 23.7929 4.378C24.4889 4.774 25.0349 5.326 25.4309 6.034C25.8389 6.742 26.0429 7.564 26.0429 8.5C26.0429 9.424 25.8389 10.24 25.4309 10.948C25.0229 11.656 24.4709 12.214 23.7749 12.622C23.0909 13.018 22.3109 13.216 21.4349 13.216ZM21.4349 11.11C21.8309 11.11 22.1849 11.014 22.4969 10.822C22.8209 10.63 23.0789 10.342 23.2709 9.958C23.4629 9.562 23.5589 9.076 23.5589 8.5C23.5589 7.912 23.4629 7.426 23.2709 7.042C23.0909 6.658 22.8389 6.37 22.5149 6.178C22.2029 5.974 21.8489 5.872 21.4529 5.872C21.0689 5.872 20.7149 5.974 20.3909 6.178C20.0669 6.37 19.8089 6.658 19.6169 7.042C19.4249 7.426 19.3289 7.912 19.3289 8.5C19.3289 9.076 19.4249 9.562 19.6169 9.958C19.8089 10.342 20.0609 10.63 20.3729 10.822C20.6969 11.014 21.0509 11.11 21.4349 11.11ZM28.1196 13V3.982H30.2436L30.4236 5.476C30.7116 4.96 31.1076 4.546 31.6116 4.234C32.1276 3.922 32.7456 3.766 33.4656 3.766C34.2096 3.766 34.8396 3.928 35.3556 4.252C35.8716 4.564 36.2616 5.026 36.5256 5.638C36.8016 6.238 36.9396 6.976 36.9396 7.852V13H34.5276V8.086C34.5276 7.354 34.3716 6.796 34.0596 6.412C33.7596 6.016 33.2916 5.818 32.6556 5.818C32.2476 5.818 31.8816 5.914 31.5576 6.106C31.2456 6.298 30.9996 6.574 30.8196 6.934C30.6396 7.294 30.5496 7.732 30.5496 8.248V13H28.1196ZM43.2439 13.216C42.4159 13.216 41.6719 13.012 41.0119 12.604C40.3639 12.196 39.8479 11.638 39.4639 10.93C39.0919 10.21 38.9059 9.4 38.9059 8.5C38.9059 7.588 39.0919 6.778 39.4639 6.07C39.8479 5.35 40.3699 4.786 41.0299 4.378C41.7019 3.97 42.4519 3.766 43.2799 3.766C43.9399 3.766 44.5159 3.892 45.0079 4.144C45.4999 4.384 45.8959 4.72 46.1959 5.152V0.0399995H48.6259V13H46.4659L46.1959 11.758C46.0039 12.01 45.7759 12.25 45.5119 12.478C45.2479 12.706 44.9299 12.886 44.5579 13.018C44.1859 13.15 43.7479 13.216 43.2439 13.216ZM43.8199 11.092C44.2999 11.092 44.7199 10.984 45.0799 10.768C45.4519 10.54 45.7399 10.234 45.9439 9.85C46.1479 9.454 46.2499 9.004 46.2499 8.5C46.2499 7.984 46.1479 7.534 45.9439 7.15C45.7399 6.754 45.4519 6.448 45.0799 6.232C44.7079 6.004 44.2819 5.89 43.8019 5.89C43.3459 5.89 42.9319 6.004 42.5599 6.232C42.1879 6.448 41.8939 6.754 41.6779 7.15C41.4739 7.534 41.3719 7.978 41.3719 8.482C41.3719 8.986 41.4739 9.436 41.6779 9.832C41.8939 10.228 42.1879 10.54 42.5599 10.768C42.9319 10.984 43.3519 11.092 43.8199 11.092ZM52.0508 13.09C51.6068 13.09 51.2468 12.958 50.9708 12.694C50.6948 12.418 50.5568 12.082 50.5568 11.686C50.5568 11.29 50.6948 10.96 50.9708 10.696C51.2468 10.42 51.6068 10.282 52.0508 10.282C52.4948 10.282 52.8548 10.42 53.1308 10.696C53.4068 10.96 53.5448 11.29 53.5448 11.686C53.5448 12.082 53.4068 12.418 53.1308 12.694C52.8548 12.958 52.4948 13.09 52.0508 13.09Z" fill="#131C26"/>
<path d="M59.5388 13.216C58.7108 13.216 57.9668 13.012 57.3068 12.604C56.6588 12.196 56.1428 11.638 55.7588 10.93C55.3868 10.21 55.2008 9.4 55.2008 8.5C55.2008 7.588 55.3868 6.778 55.7588 6.07C56.1428 5.35 56.6648 4.786 57.3248 4.378C57.9968 3.97 58.7468 3.766 59.5748 3.766C60.2348 3.766 60.8108 3.892 61.3028 4.144C61.7948 4.384 62.1908 4.72 62.4908 5.152V0.0399995H64.9208V13H62.7608L62.4908 11.758C62.2988 12.01 62.0708 12.25 61.8068 12.478C61.5428 12.706 61.2248 12.886 60.8528 13.018C60.4808 13.15 60.0428 13.216 59.5388 13.216ZM60.1148 11.092C60.5948 11.092 61.0148 10.984 61.3748 10.768C61.7468 10.54 62.0348 10.234 62.2388 9.85C62.4428 9.454 62.5448 9.004 62.5448 8.5C62.5448 7.984 62.4428 7.534 62.2388 7.15C62.0348 6.754 61.7468 6.448 61.3748 6.232C61.0028 6.004 60.5768 5.89 60.0968 5.89C59.6408 5.89 59.2268 6.004 58.8548 6.232C58.4828 6.448 58.1888 6.754 57.9728 7.15C57.7688 7.534 57.6668 7.978 57.6668 8.482C57.6668 8.986 57.7688 9.436 57.9728 9.832C58.1888 10.228 58.4828 10.54 58.8548 10.768C59.2268 10.984 59.6468 11.092 60.1148 11.092ZM71.6397 13.216C70.7277 13.216 69.9177 13.024 69.2097 12.64C68.5137 12.244 67.9677 11.698 67.5717 11.002C67.1877 10.306 66.9957 9.496 66.9957 8.572C66.9957 7.636 67.1877 6.808 67.5717 6.088C67.9557 5.368 68.4957 4.804 69.1917 4.396C69.8997 3.976 70.7157 3.766 71.6397 3.766C72.5397 3.766 73.3257 3.964 73.9977 4.36C74.6697 4.744 75.1917 5.272 75.5637 5.944C75.9477 6.616 76.1397 7.378 76.1397 8.23C76.1397 8.35 76.1397 8.482 76.1397 8.626C76.1397 8.77 76.1277 8.926 76.1037 9.094H68.7237V7.6H73.6737C73.6497 7.036 73.4457 6.586 73.0617 6.25C72.6897 5.914 72.2217 5.746 71.6577 5.746C71.2377 5.746 70.8537 5.842 70.5057 6.034C70.1577 6.214 69.8817 6.496 69.6777 6.88C69.4857 7.252 69.3897 7.726 69.3897 8.302V8.824C69.3897 9.316 69.4797 9.742 69.6597 10.102C69.8517 10.462 70.1157 10.744 70.4517 10.948C70.7997 11.14 71.1897 11.236 71.6217 11.236C72.0657 11.236 72.4317 11.14 72.7197 10.948C73.0197 10.756 73.2477 10.504 73.4037 10.192H75.8877C75.7197 10.756 75.4317 11.266 75.0237 11.722C74.6277 12.178 74.1417 12.544 73.5657 12.82C73.0017 13.084 72.3597 13.216 71.6397 13.216ZM80.1543 13L76.8603 3.982H79.4163L81.6483 10.714L83.8803 3.982H86.4003L83.1063 13H80.1543Z" fill="#5EEAD4"/>
</svg>
