<svg width="70" height="70" viewBox="0 0 70 70" fill="none" xmlns="http://www.w3.org/2000/svg">
<rect width="70" height="70" rx="8" fill="#131C26"/>
<path d="M17.26 39.168H14.54L11.02 35.568L14.54 31.968H17.26L13.724 35.568L17.26 39.168ZM19.8216 40V31.968H21.7256L21.9016 33.04C22.1576 32.6453 22.4936 32.336 22.9096 32.112C23.3363 31.888 23.8216 31.776 24.3656 31.776C24.771 31.776 25.1336 31.8293 25.4536 31.936C25.7736 32.032 26.0563 32.1867 26.3016 32.4C26.5576 32.6027 26.7656 32.8533 26.9256 33.152C27.235 32.7253 27.6296 32.3893 28.1096 32.144C28.5896 31.8987 29.1123 31.776 29.6776 31.776C30.3816 31.776 30.9683 31.9147 31.4376 32.192C31.907 32.4693 32.2643 32.88 32.5096 33.424C32.755 33.9573 32.8776 34.6133 32.8776 35.392V40H30.7336V35.6C30.7336 34.9493 30.6056 34.4533 30.3496 34.112C30.0936 33.7707 29.7043 33.6 29.1816 33.6C28.8296 33.6 28.5203 33.6853 28.2536 33.856C27.9976 34.0267 27.795 34.272 27.6456 34.592C27.4963 34.912 27.4216 35.296 27.4216 35.744V40H25.2776V35.6C25.2776 34.9493 25.1496 34.4533 24.8936 34.112C24.6376 33.7707 24.2376 33.6 23.6936 33.6C23.363 33.6 23.0643 33.6853 22.7976 33.856C22.5416 34.0267 22.339 34.272 22.1896 34.592C22.051 34.912 21.9816 35.296 21.9816 35.744V40H19.8216ZM44.6805 41.824L48.6805 27.536H50.7765L46.7765 41.824H44.6805ZM52.6446 39.168L56.1806 35.568L52.6446 31.968H55.3806L58.9006 35.568L55.3806 39.168H52.6446Z" fill="#E2E8F0"/>
<path d="M38.4681 40.192C37.7428 40.192 37.0868 40.0107 36.5001 39.648C35.9135 39.2853 35.4548 38.7893 35.1241 38.16C34.7935 37.52 34.6281 36.7947 34.6281 35.984C34.6281 35.1733 34.7935 34.4533 35.1241 33.824C35.4655 33.184 35.9295 32.6827 36.5161 32.32C37.1135 31.9573 37.7801 31.776 38.5161 31.776C39.1028 31.776 39.6095 31.8827 40.0361 32.096C40.4735 32.3093 40.8255 32.6133 41.0921 33.008V28.48H43.2521V40H41.3321L41.0921 38.896C40.9321 39.12 40.7295 39.3333 40.4841 39.536C40.2495 39.7387 39.9668 39.8987 39.6361 40.016C39.3055 40.1333 38.9161 40.192 38.4681 40.192ZM38.9801 38.304C39.4068 38.304 39.7801 38.208 40.1001 38.016C40.4308 37.8133 40.6868 37.536 40.8681 37.184C41.0601 36.832 41.1561 36.432 41.1561 35.984C41.1561 35.5253 41.0601 35.12 40.8681 34.768C40.6868 34.416 40.4308 34.144 40.1001 33.952C39.7801 33.76 39.4068 33.664 38.9801 33.664C38.5748 33.664 38.2068 33.76 37.8761 33.952C37.5455 34.144 37.2841 34.416 37.0921 34.768C36.9108 35.12 36.8201 35.52 36.8201 35.968C36.8201 36.4267 36.9108 36.832 37.0921 37.184C37.2841 37.536 37.5455 37.8133 37.8761 38.016C38.2068 38.208 38.5748 38.304 38.9801 38.304Z" fill="#5EEAD4"/>
</svg>
