<svg width="70" height="70" viewBox="0 0 70 70" fill="none" xmlns="http://www.w3.org/2000/svg">
<rect width="70" height="70" rx="8" fill="#131C26"/>
<path d="M12.65 45V30.12H16.58L16.97 32.28H17C17.46 31.48 18.09 30.86 18.89 30.42C19.69 29.98 20.63 29.76 21.71 29.76C22.45 29.76 23.12 29.86 23.72 30.06C24.34 30.24 24.89 30.53 25.37 30.93C25.85 31.31 26.25 31.81 26.57 32.43H26.6C27.18 31.61 27.91 30.96 28.79 30.48C29.67 30 30.69 29.76 31.85 29.76C33.13 29.76 34.2 30.04 35.06 30.6C35.94 31.14 36.61 31.93 37.07 32.97C37.53 34.01 37.76 35.27 37.76 36.75V45H33.29V37.17C33.29 36.01 33.07 35.12 32.63 34.5C32.19 33.86 31.49 33.54 30.53 33.54C29.91 33.54 29.36 33.69 28.88 33.99C28.42 34.29 28.06 34.72 27.8 35.28C27.56 35.82 27.44 36.48 27.44 37.26V45H22.97V37.17C22.97 36.01 22.75 35.12 22.31 34.5C21.87 33.86 21.16 33.54 20.18 33.54C19.58 33.54 19.05 33.69 18.59 33.99C18.15 34.29 17.8 34.73 17.54 35.31C17.28 35.87 17.15 36.55 17.15 37.35V45H12.65Z" fill="#E2E8F0"/>
<path d="M47.5829 45.36C46.2229 45.36 44.9929 45.02 43.8929 44.34C42.8129 43.66 41.9629 42.73 41.3429 41.55C40.7229 40.37 40.4129 39.03 40.4129 37.53C40.4129 36.03 40.7229 34.7 41.3429 33.54C41.9629 32.36 42.8129 31.44 43.8929 30.78C44.9929 30.1 46.2329 29.76 47.6129 29.76C48.6929 29.76 49.6329 29.96 50.4329 30.36C51.2529 30.74 51.9129 31.26 52.4129 31.92V23.61H56.9129V45H53.0129L52.5929 42.81H52.5629C52.2429 43.31 51.8429 43.75 51.3629 44.13C50.9029 44.51 50.3629 44.81 49.7429 45.03C49.1229 45.25 48.4029 45.36 47.5829 45.36ZM48.7829 41.52C49.5229 41.52 50.1729 41.35 50.7329 41.01C51.3129 40.67 51.7629 40.2 52.0829 39.6C52.4029 39 52.5629 38.31 52.5629 37.53C52.5629 36.77 52.4029 36.09 52.0829 35.49C51.7629 34.89 51.3129 34.42 50.7329 34.08C50.1729 33.74 49.5129 33.57 48.7529 33.57C48.0329 33.57 47.3829 33.74 46.8029 34.08C46.2429 34.42 45.8029 34.89 45.4829 35.49C45.1629 36.09 45.0029 36.77 45.0029 37.53C45.0029 38.31 45.1529 39 45.4529 39.6C45.7729 40.2 46.2229 40.67 46.8029 41.01C47.3829 41.35 48.0429 41.52 48.7829 41.52Z" fill="#5EEAD4"/>
</svg>
