<svg width="100" height="28" viewBox="0 0 100 28" fill="none" xmlns="http://www.w3.org/2000/svg">
<path d="M1.188 20V10.982H3.312L3.51 12.188C3.798 11.756 4.176 11.414 4.644 11.162C5.124 10.898 5.676 10.766 6.3 10.766C6.756 10.766 7.164 10.826 7.524 10.946C7.896 11.066 8.22 11.24 8.496 11.468C8.772 11.696 9.006 11.984 9.198 12.332C9.534 11.852 9.972 11.474 10.512 11.198C11.052 10.91 11.646 10.766 12.294 10.766C13.074 10.766 13.728 10.928 14.256 11.252C14.796 11.564 15.204 12.026 15.48 12.638C15.756 13.238 15.894 13.976 15.894 14.852V20H13.482V15.086C13.482 14.354 13.338 13.796 13.05 13.412C12.762 13.016 12.324 12.818 11.736 12.818C11.34 12.818 10.992 12.92 10.692 13.124C10.392 13.316 10.158 13.592 9.99 13.952C9.834 14.312 9.756 14.75 9.756 15.266V20H7.326V15.086C7.326 14.354 7.182 13.796 6.894 13.412C6.606 13.016 6.156 12.818 5.544 12.818C5.172 12.818 4.836 12.92 4.536 13.124C4.248 13.316 4.02 13.592 3.852 13.952C3.696 14.312 3.618 14.75 3.618 15.266V20H1.188ZM22.4349 20.216C21.5709 20.216 20.7909 20.018 20.0949 19.622C19.4109 19.214 18.8649 18.656 18.4569 17.948C18.0609 17.24 17.8629 16.424 17.8629 15.5C17.8629 14.564 18.0609 13.742 18.4569 13.034C18.8649 12.326 19.4169 11.774 20.1129 11.378C20.8089 10.97 21.5889 10.766 22.4529 10.766C23.3169 10.766 24.0969 10.97 24.7929 11.378C25.4889 11.774 26.0349 12.326 26.4309 13.034C26.8389 13.742 27.0429 14.564 27.0429 15.5C27.0429 16.424 26.8389 17.24 26.4309 17.948C26.0229 18.656 25.4709 19.214 24.7749 19.622C24.0909 20.018 23.3109 20.216 22.4349 20.216ZM22.4349 18.11C22.8309 18.11 23.1849 18.014 23.4969 17.822C23.8209 17.63 24.0789 17.342 24.2709 16.958C24.4629 16.562 24.5589 16.076 24.5589 15.5C24.5589 14.912 24.4629 14.426 24.2709 14.042C24.0909 13.658 23.8389 13.37 23.5149 13.178C23.2029 12.974 22.8489 12.872 22.4529 12.872C22.0689 12.872 21.7149 12.974 21.3909 13.178C21.0669 13.37 20.8089 13.658 20.6169 14.042C20.4249 14.426 20.3289 14.912 20.3289 15.5C20.3289 16.076 20.4249 16.562 20.6169 16.958C20.8089 17.342 21.0609 17.63 21.3729 17.822C21.6969 18.014 22.0509 18.11 22.4349 18.11ZM29.1196 20V10.982H31.2436L31.4236 12.476C31.7116 11.96 32.1076 11.546 32.6116 11.234C33.1276 10.922 33.7456 10.766 34.4656 10.766C35.2096 10.766 35.8396 10.928 36.3556 11.252C36.8716 11.564 37.2616 12.026 37.5256 12.638C37.8016 13.238 37.9396 13.976 37.9396 14.852V20H35.5276V15.086C35.5276 14.354 35.3716 13.796 35.0596 13.412C34.7596 13.016 34.2916 12.818 33.6556 12.818C33.2476 12.818 32.8816 12.914 32.5576 13.106C32.2456 13.298 31.9996 13.574 31.8196 13.934C31.6396 14.294 31.5496 14.732 31.5496 15.248V20H29.1196ZM44.2439 20.216C43.4159 20.216 42.6719 20.012 42.0119 19.604C41.3639 19.196 40.8479 18.638 40.4639 17.93C40.0919 17.21 39.9059 16.4 39.9059 15.5C39.9059 14.588 40.0919 13.778 40.4639 13.07C40.8479 12.35 41.3699 11.786 42.0299 11.378C42.7019 10.97 43.4519 10.766 44.2799 10.766C44.9399 10.766 45.5159 10.892 46.0079 11.144C46.4999 11.384 46.8959 11.72 47.1959 12.152V7.04H49.6259V20H47.4659L47.1959 18.758C47.0039 19.01 46.7759 19.25 46.5119 19.478C46.2479 19.706 45.9299 19.886 45.5579 20.018C45.1859 20.15 44.7479 20.216 44.2439 20.216ZM44.8199 18.092C45.2999 18.092 45.7199 17.984 46.0799 17.768C46.4519 17.54 46.7399 17.234 46.9439 16.85C47.1479 16.454 47.2499 16.004 47.2499 15.5C47.2499 14.984 47.1479 14.534 46.9439 14.15C46.7399 13.754 46.4519 13.448 46.0799 13.232C45.7079 13.004 45.2819 12.89 44.8019 12.89C44.3459 12.89 43.9319 13.004 43.5599 13.232C43.1879 13.448 42.8939 13.754 42.6779 14.15C42.4739 14.534 42.3719 14.978 42.3719 15.482C42.3719 15.986 42.4739 16.436 42.6779 16.832C42.8939 17.228 43.1879 17.54 43.5599 17.768C43.9319 17.984 44.3519 18.092 44.8199 18.092ZM56.0388 20.216C55.2108 20.216 54.4668 20.012 53.8068 19.604C53.1588 19.196 52.6428 18.638 52.2588 17.93C51.8868 17.21 51.7008 16.4 51.7008 15.5C51.7008 14.588 51.8868 13.778 52.2588 13.07C52.6428 12.35 53.1648 11.786 53.8248 11.378C54.4968 10.97 55.2468 10.766 56.0748 10.766C56.7348 10.766 57.3108 10.892 57.8028 11.144C58.2948 11.384 58.6908 11.72 58.9908 12.152V7.04H61.4208V20H59.2608L58.9908 18.758C58.7988 19.01 58.5708 19.25 58.3068 19.478C58.0428 19.706 57.7248 19.886 57.3528 20.018C56.9808 20.15 56.5428 20.216 56.0388 20.216ZM56.6148 18.092C57.0948 18.092 57.5148 17.984 57.8748 17.768C58.2468 17.54 58.5348 17.234 58.7388 16.85C58.9428 16.454 59.0448 16.004 59.0448 15.5C59.0448 14.984 58.9428 14.534 58.7388 14.15C58.5348 13.754 58.2468 13.448 57.8748 13.232C57.5028 13.004 57.0768 12.89 56.5968 12.89C56.1408 12.89 55.7268 13.004 55.3548 13.232C54.9828 13.448 54.6888 13.754 54.4728 14.15C54.2688 14.534 54.1668 14.978 54.1668 15.482C54.1668 15.986 54.2688 16.436 54.4728 16.832C54.6888 17.228 54.9828 17.54 55.3548 17.768C55.7268 17.984 56.1468 18.092 56.6148 18.092ZM64.8457 20.09C64.4017 20.09 64.0417 19.958 63.7657 19.694C63.4897 19.418 63.3517 19.082 63.3517 18.686C63.3517 18.29 63.4897 17.96 63.7657 17.696C64.0417 17.42 64.4017 17.282 64.8457 17.282C65.2897 17.282 65.6497 17.42 65.9257 17.696C66.2017 17.96 66.3397 18.29 66.3397 18.686C66.3397 19.082 66.2017 19.418 65.9257 19.694C65.6497 19.958 65.2897 20.09 64.8457 20.09Z" fill="white"/>
<path d="M72.3337 20.216C71.5057 20.216 70.7617 20.012 70.1017 19.604C69.4537 19.196 68.9377 18.638 68.5537 17.93C68.1817 17.21 67.9957 16.4 67.9957 15.5C67.9957 14.588 68.1817 13.778 68.5537 13.07C68.9377 12.35 69.4597 11.786 70.1197 11.378C70.7917 10.97 71.5417 10.766 72.3697 10.766C73.0297 10.766 73.6057 10.892 74.0977 11.144C74.5897 11.384 74.9857 11.72 75.2857 12.152V7.04H77.7157V20H75.5557L75.2857 18.758C75.0937 19.01 74.8657 19.25 74.6017 19.478C74.3377 19.706 74.0197 19.886 73.6477 20.018C73.2757 20.15 72.8377 20.216 72.3337 20.216ZM72.9097 18.092C73.3897 18.092 73.8097 17.984 74.1697 17.768C74.5417 17.54 74.8297 17.234 75.0337 16.85C75.2377 16.454 75.3397 16.004 75.3397 15.5C75.3397 14.984 75.2377 14.534 75.0337 14.15C74.8297 13.754 74.5417 13.448 74.1697 13.232C73.7977 13.004 73.3717 12.89 72.8917 12.89C72.4357 12.89 72.0217 13.004 71.6497 13.232C71.2777 13.448 70.9837 13.754 70.7677 14.15C70.5637 14.534 70.4617 14.978 70.4617 15.482C70.4617 15.986 70.5637 16.436 70.7677 16.832C70.9837 17.228 71.2777 17.54 71.6497 17.768C72.0217 17.984 72.4417 18.092 72.9097 18.092ZM84.4346 20.216C83.5226 20.216 82.7126 20.024 82.0046 19.64C81.3086 19.244 80.7626 18.698 80.3666 18.002C79.9826 17.306 79.7906 16.496 79.7906 15.572C79.7906 14.636 79.9826 13.808 80.3666 13.088C80.7506 12.368 81.2906 11.804 81.9866 11.396C82.6946 10.976 83.5106 10.766 84.4346 10.766C85.3346 10.766 86.1206 10.964 86.7926 11.36C87.4646 11.744 87.9866 12.272 88.3586 12.944C88.7426 13.616 88.9346 14.378 88.9346 15.23C88.9346 15.35 88.9346 15.482 88.9346 15.626C88.9346 15.77 88.9226 15.926 88.8986 16.094H81.5186V14.6H86.4686C86.4446 14.036 86.2406 13.586 85.8566 13.25C85.4846 12.914 85.0166 12.746 84.4526 12.746C84.0326 12.746 83.6486 12.842 83.3006 13.034C82.9526 13.214 82.6766 13.496 82.4726 13.88C82.2806 14.252 82.1846 14.726 82.1846 15.302V15.824C82.1846 16.316 82.2746 16.742 82.4546 17.102C82.6466 17.462 82.9106 17.744 83.2466 17.948C83.5946 18.14 83.9846 18.236 84.4166 18.236C84.8606 18.236 85.2266 18.14 85.5146 17.948C85.8146 17.756 86.0426 17.504 86.1986 17.192H88.6826C88.5146 17.756 88.2266 18.266 87.8186 18.722C87.4226 19.178 86.9366 19.544 86.3606 19.82C85.7966 20.084 85.1546 20.216 84.4346 20.216ZM92.9492 20L89.6552 10.982H92.2112L94.4432 17.714L96.6752 10.982H99.1952L95.9012 20H92.9492Z" fill="#5EEAD4"/>
</svg>
